<svg width="512" height="512" viewBox="0 0 512 512" fill="none" xmlns="http://www.w3.org/2000/svg">
<path fill-rule="evenodd" clip-rule="evenodd" d="M458.286 255.429C458.286 367.463 367.463 458.286 255.429 458.286C143.394 458.286 52.5714 367.463 52.5714 255.429C52.5714 143.394 143.394 52.5714 255.429 52.5714C367.463 52.5714 458.286 143.394 458.286 255.429ZM388.011 387.388L255.807 303.078L123.283 387.591L207.845 254.991L123.755 123.132L256.145 207.56L388.215 123.335L303.917 255.521L388.011 387.388ZM220.286 171.429C217.905 171.429 216.714 170.119 216.714 167.5V72.9286C216.714 70.3096 217.905 69 220.286 69H229.429C232.762 69 235.143 70.1904 236.571 72.5714L281.286 147.5H281.571C281.476 145.595 281.429 143.69 281.429 141.786V72.9286C281.429 70.3096 282.619 69 285 69H291.571C293.952 69 295.143 70.3096 295.143 72.9286V167.5C295.143 170.119 293.952 171.429 291.571 171.429H285.286C281.952 171.429 279.571 170.238 278.143 167.857L230.571 88.3571H230.286C230.381 90.2619 230.429 92.1667 230.429 94.0714V167.5C230.429 170.119 229.238 171.429 226.857 171.429H220.286ZM173.714 228.287L98.2857 256L173.714 283.713V228.287ZM413.714 256L338.286 283.713V228.287L413.714 256ZM228.287 338.286L256 413.714L283.713 338.286H228.287Z" fill="black"/>
<path fill-rule="evenodd" clip-rule="evenodd" d="M256 512C397.385 512 512 397.385 512 256C512 114.615 397.385 0 256 0C114.615 0 0 114.615 0 256C0 397.385 114.615 512 256 512ZM256 477.714C378.45 477.714 477.714 378.45 477.714 256C477.714 133.551 378.45 34.2857 256 34.2857C133.551 34.2857 34.2857 133.551 34.2857 256C34.2857 378.45 133.551 477.714 256 477.714Z" fill="black"/>
</svg>
