<svg width="381" height="381" viewBox="0 0 381 381" fill="none" xmlns="http://www.w3.org/2000/svg">
<path d="M371.411 9.3726C358.914 -3.12416 338.653 -3.12417 326.156 9.3726L190.392 145.137L54.6274 9.37258C42.1306 -3.1242 21.8694 -3.12418 9.3726 9.37258C-3.12419 21.8694 -3.12419 42.1306 9.3726 54.6274L145.137 190.392L9.37257 326.156C-3.12419 338.653 -3.12419 358.914 9.37257 371.411C21.8693 383.908 42.1306 383.908 54.6274 371.411L190.392 235.647L326.156 371.411C338.653 383.908 358.914 383.908 371.411 371.411C383.908 358.914 383.908 338.653 371.411 326.156L235.647 190.392L371.411 54.6274C383.908 42.1307 383.908 21.8694 371.411 9.3726Z" fill="black"/>
</svg>
