<svg width="493" height="394" viewBox="0 0 493 394" fill="none" xmlns="http://www.w3.org/2000/svg">
<path d="M111.557 0V36.6334C111.557 56.8164 127.918 73.1779 148.101 73.1779C168.284 73.1779 184.646 56.8164 184.646 36.6334V0H111.557Z" fill="black"/>
<path d="M307.743 0V36.6334C307.743 56.8164 324.104 73.1779 344.287 73.1779C364.47 73.1779 380.832 56.8164 380.832 36.6334V0H307.743Z" fill="black"/>
<path d="M196.956 132.418H295.433V230.896H196.956V132.418Z" fill="black"/>
<path d="M172.336 243.975H73.8583V342.453H172.336V243.975Z" fill="black"/>
<path d="M196.956 243.975H295.433V342.453H196.956V243.975Z" fill="black"/>
<path d="M418.531 132.418H320.053V230.896H418.531V132.418Z" fill="black"/>
<path fill-rule="evenodd" clip-rule="evenodd" d="M64 0.0889587H98.4777V49.3279C98.4777 76.5219 120.523 98.5668 147.717 98.5668C174.91 98.5668 196.955 76.5219 196.955 49.3279V0.0889587H295.433V49.3279C295.433 76.5219 317.478 98.5668 344.672 98.5668C371.866 98.5668 393.911 76.5219 393.911 49.3279V0.0889587H428.389C463.735 0.0889587 492.389 28.7427 492.389 64.089V330C492.389 365.346 463.735 394 428.389 394H64C28.6538 394 0 365.346 0 330V64.0889C0 28.7427 28.6537 0.0889587 64 0.0889587ZM443.15 121.648H49.2388V353.224H443.15V121.648Z" fill="black"/>
</svg>
