<svg width="512" height="512" viewBox="0 0 512 512" fill="none" xmlns="http://www.w3.org/2000/svg">
<path fill-rule="evenodd" clip-rule="evenodd" d="M82 496V121.768L164.624 16H366.816C402.264 16 431 44.7817 431 80.2857V217.783H374.021C353.229 217.783 336.373 234.665 336.373 255.49C336.373 276.315 353.229 293.197 374.021 293.197H431V431.714C431 467.218 402.264 496 366.816 496H82ZM224.087 148.363C225.396 152.632 229.911 155.029 234.173 153.718C238.434 152.407 240.828 147.885 239.519 143.616L233.473 123.9C263.582 91.5584 301.774 67.7323 338.911 51.0211C332.291 59.6176 326.071 67.5135 320.109 75.0807C275.317 131.939 245.144 170.24 169.822 347.735C157.137 326.229 152.729 313.052 151.179 286.939C151.179 286.939 157.745 289.993 163.914 295.426C170.083 300.858 175.543 300.305 176.341 288.22C171.384 226.285 190.429 176.972 221.023 138.372L224.087 148.363ZM193.61 328.014L198.301 359.836C235.7 333.388 264.087 307.118 286.949 271.674L254.285 281.722C250.023 283.033 245.507 280.635 244.199 276.367C242.89 272.099 245.283 267.576 249.545 266.265L299.078 251.028C304.426 241.029 309.455 230.319 314.224 218.741C314.224 218.741 300.079 220.411 284.9 218.177C269.721 215.943 279.385 206.653 288.034 200.862C288.498 200.551 289.203 200.109 290.117 199.536L290.118 199.535C299.65 193.556 331.908 173.319 350.842 139.254L335.856 143.864C331.595 145.175 327.079 142.778 325.77 138.509C324.462 134.241 326.855 129.718 331.117 128.407L359.509 119.673C366.197 99.6479 367.672 75.995 359.05 48.7728C291.029 123.155 254.621 182.46 193.61 328.014ZM127.106 476.459C129.934 463.583 134.248 451.42 139.91 438.35L149.731 448.165C147.526 452.725 145.899 456.109 144.364 459.31C136.811 465.791 133.222 469.598 127.106 476.459ZM155.336 436.601L145.257 426.528C149.453 417.576 154.203 408.037 159.468 397.464C166.555 383.233 174.574 367.128 183.431 348.059C185.194 357.589 186.172 362.586 187.851 369.817C171.276 403.823 161.601 423.697 155.336 436.601Z" fill="black"/>
<path d="M82 16H133.618L82 82.0763V16Z" fill="black"/>
<path d="M400.475 256C400.475 269.227 389.77 279.949 376.564 279.949C363.359 279.949 352.653 269.227 352.653 256C352.653 242.773 363.359 232.051 376.564 232.051C389.77 232.051 400.475 242.773 400.475 256Z" fill="black"/>
</svg>
