<svg width="512" height="512" viewBox="0 0 512 512" fill="none" xmlns="http://www.w3.org/2000/svg">
<path fill-rule="evenodd" clip-rule="evenodd" d="M448.013 255.458C448.013 361.803 361.803 448.013 255.458 448.013C149.112 448.013 62.9018 361.803 62.9018 255.458C62.9018 149.112 149.112 62.9018 255.458 62.9018C361.803 62.9018 448.013 149.112 448.013 255.458ZM381.308 380.716L255.817 300.687L130.023 380.909L210.291 255.042L130.471 129.879L256.137 210.019L381.501 130.072L301.484 255.545L381.308 380.716ZM222.099 175.723C219.839 175.723 218.709 174.48 218.709 171.994V82.2252C218.709 79.7392 219.839 78.4961 222.099 78.4961H230.778C233.942 78.4961 236.202 79.6261 237.558 81.8862L280.002 153.01H280.273C280.182 151.202 280.137 149.394 280.137 147.586V82.2252C280.137 79.7392 281.267 78.4961 283.527 78.4961H289.765C292.025 78.4961 293.155 79.7392 293.155 82.2252V171.994C293.155 174.48 292.025 175.723 289.765 175.723H283.799C280.635 175.723 278.374 174.593 277.018 172.333L231.863 96.8703H231.592C231.682 98.6783 231.727 100.486 231.727 102.294V171.994C231.727 174.48 230.597 175.723 228.337 175.723H222.099ZM177.893 229.695L106.295 256L177.893 282.305V229.695ZM405.705 256L334.107 282.305V229.695L405.705 256ZM229.695 334.107L256 405.705L282.305 334.107H229.695Z" fill="black"/>
<path fill-rule="evenodd" clip-rule="evenodd" d="M256 499C390.205 499 499 390.205 499 256C499 121.795 390.205 13 256 13C121.795 13 13 121.795 13 256C13 390.205 121.795 499 256 499ZM256 466.455C372.231 466.455 466.455 372.231 466.455 256C466.455 139.769 372.231 45.5446 256 45.5446C139.769 45.5446 45.5446 139.769 45.5446 256C45.5446 372.231 139.769 466.455 256 466.455Z" fill="black"/>
</svg>
