<svg width="512" height="512" viewBox="0 0 512 512" fill="none" xmlns="http://www.w3.org/2000/svg">
<path d="M383.051 18H133.489C175.21 67.5058 148.498 176.995 124.718 274.462C110.794 331.536 97.8751 384.489 100.293 418.859L195.991 303.637C163.137 264.568 161.884 206.488 195.663 165.818C233.707 120.012 301.783 113.636 347.715 151.576C393.647 189.517 400.041 257.407 361.996 303.213C328.217 343.883 270.764 353.47 226.155 328.553L114.813 462.61C149.263 512.96 232.388 505.387 238.54 420.568C241.104 410.582 245.486 408.983 254.537 407.805H390.516C397.665 355.997 409.202 305.41 419.852 258.71L419.854 258.702L419.856 258.695L419.857 258.691C448.599 132.664 470.883 34.9556 383.051 18Z" fill="black"/>
<path d="M127.09 72.7747H30.0378C27.3717 72.879 16.002 65.7727 18.3062 58.9481C41.9346 -11.0321 131.121 19.3594 127.09 72.7747Z" fill="black"/>
<path d="M276.934 436.522H480.103C511.639 440.686 486.441 484.362 435.31 491.829H249.738C264.848 472.035 271.208 460.09 276.934 436.522Z" fill="black"/>
<path d="M203.038 228.591C195.676 228.591 189.707 234.543 189.707 241.885C189.707 249.228 195.676 255.18 203.038 255.18H353.416C360.778 255.18 366.747 249.228 366.747 241.885C366.747 234.543 360.778 228.591 353.416 228.591H203.038Z" fill="black"/>
<path d="M189.707 206.787C189.707 199.444 195.676 193.492 203.038 193.492H313.955C321.318 193.492 327.286 199.444 327.286 206.787C327.286 214.13 321.318 220.082 313.955 220.082H203.038C195.676 220.082 189.707 214.13 189.707 206.787Z" fill="black"/>
<path d="M242.499 263.689C235.136 263.689 229.168 269.641 229.168 276.984C229.168 284.326 235.136 290.279 242.499 290.279H353.416C360.778 290.279 366.747 284.326 366.747 276.984C366.747 269.641 360.778 263.689 353.416 263.689H242.499Z" fill="black"/>
</svg>
