<svg width="512" height="512" viewBox="0 0 512 512" fill="none" xmlns="http://www.w3.org/2000/svg">
    <path d="M303.376 89.4716L137.978 29L374.233 39.6304L349.544 82.3909C348.403 81.3547 347.652 80.6756 347.438 80.4822L347.406 80.4529C347.379 80.4287 347.356 80.4078 347.324 80.3801C343.174 76.7144 292.986 44.1637 258.84 57.5202C257.983 57.8557 257.222 58.3976 256.591 59.0686C253.048 62.8374 254.937 69.0492 259.923 70.4256C279.109 75.7217 293.29 81.8839 303.376 89.4716Z"
          fill="black"/>
    <path d="M316.675 103.736L125.262 36.6156L85.7857 246.021L304.967 119.481L317.904 105.72C317.603 105.263 317.316 104.804 317.042 104.343C316.921 104.14 316.799 103.938 316.675 103.736Z"
          fill="black"/>
    <path d="M288.616 141.067L95.84 252.362L171.999 296.331L292.031 168.648L335.903 209.891L225.568 327.258L336.412 391.251L336.412 195.612L293.545 155.314C289.513 151.523 287.85 146.156 288.616 141.067Z"
          fill="black"/>
    <path d="M347.04 205.293L347.04 396.85L508.659 257.961L464.688 220.174L427.877 259.332C421.741 265.86 411.474 266.177 404.947 260.04L392.221 248.077C388.588 244.662 386.727 239.765 387.176 234.799L387.497 231.242C388.2 223.457 383.25 216.278 375.724 214.165L351.644 207.406C350.003 206.946 348.45 206.231 347.04 205.293Z"
          fill="black"/>
    <path d="M471.647 211.218L511.834 244.838L384.5 45.5582L358.521 90.5543L407.718 136.803C409.622 138.593 411.065 140.816 411.925 143.283L420.157 166.901C420.388 167.564 420.659 168.204 420.966 168.819L430.893 177.124C433.118 177.781 435.51 177.966 437.927 177.597L441.458 177.057C446.387 176.303 451.389 177.858 455.022 181.273L467.748 193.236C472.789 197.975 474.126 205.177 471.647 211.218Z"
          fill="black"/>
    <path d="M165.57 303.17L89.644 259.336L109.21 363.123L165.57 303.17Z" fill="black"/>
    <path d="M121.699 429.371C127.729 428.225 133.466 425.231 137.992 420.416L219.139 334.097L330.216 398.225L129.121 468.741L121.699 429.371Z"
          fill="black"/>
    <path d="M97.6766 375.391L94.1206 379.174C82.7318 391.289 83.3203 410.342 95.435 421.731C99.0466 425.126 103.275 427.457 107.733 428.735L116.063 472.921L4.36937 264.473L76.5861 263.516L97.6766 375.391Z"
          fill="black"/>
    <path d="M512 270.829L350.381 409.718L387.319 471.779L512 270.829Z" fill="black"/>
    <path d="M133.884 483.21L334.979 412.694L370.259 475.711L133.884 483.21Z" fill="black"/>
    <path d="M111.693 39.7207L72.2166 249.126L0 248.169L111.693 39.7207Z" fill="black"/>
    <path
            class="stroke-fill"
            d="M288.087 161.163L286.202 163.169L88.2917 373.694C73.8767 389.028 74.6215 413.145 89.9554 427.56C105.289 441.975 129.406 441.23 143.821 425.896L341.731 215.37L344.088 212.863C345.783 213.823 347.593 214.579 349.482 215.109L373.563 221.868C377.377 222.938 379.885 226.577 379.529 230.523L379.208 234.08C378.539 241.495 381.317 248.806 386.741 253.906L399.467 265.869C409.214 275.032 424.543 274.558 433.706 264.812L474.285 221.646C483.448 211.899 482.974 196.57 473.227 187.407L460.501 175.444C455.077 170.344 447.608 168.023 440.249 169.149L436.718 169.689C432.801 170.288 429.015 168.009 427.711 164.268L419.479 140.65C418.195 136.966 416.04 133.647 413.197 130.974L361.826 82.6813C361.288 82.176 360.732 81.6988 360.16 81.2501C356.207 77.6251 353.268 74.9684 352.8 74.5455L352.779 74.5261L352.775 74.5226C352.747 74.4975 352.691 74.4469 352.62 74.384L347.324 80.3801L352.62 74.384C350.93 72.8913 346.401 69.8308 340.547 66.4538C334.468 62.9475 326.392 58.7714 317.299 55.138C299.605 48.0679 276.007 42.2151 255.926 50.0699C253.839 50.8862 252.11 52.155 250.762 53.5891C242.878 61.976 247.31 75.2431 257.794 78.1372C284.689 85.5613 299.725 94.2762 307.747 104.844L287.008 126.905C277.846 136.651 278.319 151.98 288.066 161.143L288.087 161.163Z"
            stroke="black" stroke-width="16"/>
</svg>
