<svg width="512" height="364" viewBox="0 0 512 364" fill="none" xmlns="http://www.w3.org/2000/svg">
<path fill-rule="evenodd" clip-rule="evenodd" d="M0 48C0 21.4904 21.4902 0 48 0H464C490.51 0 512 21.4904 512 48C512 74.5096 490.51 96 464 96H48C21.4902 96 0 74.5096 0 48ZM0 182C0 155.49 21.4902 134 48 134H464C490.51 134 512 155.49 512 182C512 208.51 490.51 230 464 230H48C21.4902 230 0 208.51 0 182ZM48 268C21.4902 268 0 289.49 0 316C0 342.51 21.4902 364 48 364H464C490.51 364 512 342.51 512 316C512 289.49 490.51 268 464 268H48Z" fill="black"/>
</svg>
