<svg width="373" height="512" viewBox="0 0 373 512" fill="none" xmlns="http://www.w3.org/2000/svg">
<path fill-rule="evenodd" clip-rule="evenodd" d="M0 512V112.819L88.2726 0H304.286C342.157 0 372.858 30.7005 372.858 68.5714V215.236H311.983C289.77 215.236 271.762 233.243 271.762 255.457C271.762 277.67 289.77 295.677 311.983 295.677H372.858V443.429C372.858 481.3 342.157 512 304.286 512H0ZM151.8 141.188C153.198 145.741 158.023 148.298 162.576 146.9C167.128 145.501 169.686 140.677 168.287 136.124L161.828 115.094C193.995 80.5956 234.798 55.1812 274.474 37.3559C267.401 46.5254 260.755 54.9477 254.387 63.0194C206.532 123.668 174.296 164.523 93.8251 353.851C80.2738 330.911 75.5643 316.855 73.908 289.001C73.908 289.001 80.923 292.26 87.5137 298.054C94.1044 303.848 99.9378 303.259 100.79 290.368C95.4944 224.304 115.841 171.703 148.527 130.53L151.8 141.188ZM119.239 332.815L124.252 366.759C164.207 338.547 194.534 310.526 218.96 272.719L184.062 283.437C179.509 284.835 174.685 282.278 173.287 277.725C171.888 273.172 174.445 268.348 178.998 266.949L231.918 250.696C237.631 240.031 243.004 228.606 248.099 216.257C248.099 216.257 232.987 218.039 216.77 215.655C200.553 213.272 210.878 203.364 220.119 197.186C220.614 196.855 221.367 196.383 222.344 195.772L222.345 195.771C232.528 189.393 266.992 167.807 287.221 131.471L271.21 136.388C266.657 137.787 261.833 135.23 260.435 130.677C259.036 126.124 261.594 121.3 266.146 119.901L296.48 110.585C303.625 89.2244 305.2 63.9947 295.989 34.9577C223.318 114.299 184.422 177.557 119.239 332.815ZM48.1891 491.157C51.2103 477.422 55.8201 464.448 61.8682 450.507L72.361 460.977C70.0058 465.84 68.2668 469.45 66.6276 472.864C58.5583 479.778 54.7231 483.838 48.1891 491.157ZM78.3491 448.641L67.5813 437.897C72.0645 428.348 77.1392 418.173 82.7639 406.895C90.3349 391.715 98.9026 374.536 108.365 354.197C110.249 364.361 111.293 369.691 113.087 377.404C95.3794 413.677 85.0423 434.876 78.3491 448.641Z" fill="black"/>
<path d="M0 0H55.1466L0 70.4814V0Z" fill="black"/>
<path d="M340.246 256C340.246 270.108 328.809 281.546 314.701 281.546C300.592 281.546 289.155 270.108 289.155 256C289.155 241.892 300.592 230.454 314.701 230.454C328.809 230.454 340.246 241.892 340.246 256Z" fill="black"/>
</svg>
