<svg width="511" height="512" viewBox="0 0 511 512" fill="none" xmlns="http://www.w3.org/2000/svg">
<path d="M391.586 0H123.884C168.637 53.2499 139.983 171.02 114.476 275.858C99.5391 337.249 85.6812 394.206 88.2746 431.176L190.929 307.239C155.686 265.216 154.343 202.744 190.577 158.998C231.387 109.727 304.411 102.869 353.682 143.679C402.952 184.489 409.811 257.514 369.001 306.784C332.767 350.53 271.137 360.842 223.286 334.04L103.85 478.236C140.804 532.394 229.971 524.248 236.57 433.015C239.321 422.273 244.022 420.553 253.731 419.286H399.594C407.263 363.56 419.638 309.147 431.063 258.915L431.065 258.906L431.067 258.899L431.067 258.895C461.899 123.336 485.803 18.238 391.586 0Z" fill="black"/>
<path d="M117.019 58.9174H12.9128C10.0529 59.0295 -2.14328 51.3857 0.328485 44.045C25.6744 -31.2278 121.343 1.46222 117.019 58.9174Z" fill="black"/>
<path d="M277.755 450.175H495.693C529.522 454.654 502.491 501.633 447.644 509.665H248.583C264.792 488.374 271.614 475.525 277.755 450.175Z" fill="black"/>
<path d="M198.489 226.518C190.591 226.518 184.188 232.92 184.188 240.818C184.188 248.716 190.591 255.118 198.489 255.118H359.797C367.695 255.118 374.097 248.716 374.097 240.818C374.097 232.92 367.695 226.518 359.797 226.518H198.489Z" fill="black"/>
<path d="M184.188 203.065C184.188 195.167 190.591 188.765 198.489 188.765H317.468C325.366 188.765 331.768 195.167 331.768 203.065C331.768 210.963 325.366 217.365 317.468 217.365H198.489C190.591 217.365 184.188 210.963 184.188 203.065Z" fill="black"/>
<path d="M240.818 264.27C232.92 264.27 226.517 270.673 226.517 278.571C226.517 286.469 232.92 292.871 240.818 292.871H359.797C367.695 292.871 374.097 286.469 374.097 278.571C374.097 270.673 367.695 264.27 359.797 264.27H240.818Z" fill="black"/>
</svg>
