<svg width="512" height="455" viewBox="0 0 512 455" fill="none" xmlns="http://www.w3.org/2000/svg">
<path d="M303.376 60.4717L137.978 0L374.233 10.6304L349.544 53.3909C348.403 52.3547 347.652 51.6756 347.438 51.4822L347.406 51.4529C347.379 51.4287 347.356 51.4078 347.324 51.3801C343.174 47.7144 292.986 15.1637 258.84 28.5202C257.983 28.8557 257.222 29.3976 256.591 30.0686C253.048 33.8374 254.937 40.0492 259.923 41.4256C279.109 46.7217 293.29 52.8839 303.376 60.4717Z" fill="black"/>
<path d="M316.675 74.7362L125.262 7.61557L85.7857 217.021L304.967 90.4808L317.904 76.7197C317.603 76.2627 317.316 75.8035 317.042 75.3427C316.921 75.1397 316.799 74.9375 316.675 74.7362Z" fill="black"/>
<path d="M288.616 112.067L95.84 223.362L171.999 267.331L292.031 139.648L335.903 180.891L225.568 298.258L336.412 362.251L336.412 166.612L293.545 126.314C289.513 122.523 287.85 117.156 288.616 112.067Z" fill="black"/>
<path d="M347.041 176.293L347.04 367.85L508.659 228.961L464.688 191.174L427.877 230.332C421.741 236.86 411.474 237.177 404.947 231.04L392.221 219.077C388.588 215.662 386.727 210.765 387.176 205.799L387.497 202.242C388.2 194.457 383.25 187.278 375.724 185.165L351.644 178.406C350.003 177.946 348.45 177.231 347.041 176.293Z" fill="black"/>
<path d="M471.647 182.218L511.834 215.838L384.5 16.5582L358.521 61.5543L407.718 107.803C409.622 109.593 411.065 111.816 411.925 114.283L420.157 137.901C420.388 138.564 420.659 139.204 420.966 139.819L430.893 148.124C433.118 148.781 435.51 148.966 437.927 148.597L441.458 148.057C446.387 147.303 451.389 148.858 455.022 152.273L467.748 164.236C472.789 168.975 474.126 176.177 471.647 182.218Z" fill="black"/>
<path d="M165.57 274.17L89.644 230.336L109.21 334.123L165.57 274.17Z" fill="black"/>
<path d="M121.699 400.371C127.729 399.225 133.466 396.231 137.992 391.416L219.139 305.097L330.216 369.225L129.121 439.741L121.699 400.371Z" fill="black"/>
<path d="M97.6766 346.391L94.1206 350.174C82.7318 362.289 83.3203 381.342 95.435 392.731C99.0466 396.126 103.275 398.457 107.733 399.735L116.063 443.921L4.36937 235.473L76.5861 234.516L97.6766 346.391Z" fill="black"/>
<path d="M512 241.829L350.381 380.718L387.319 442.779L512 241.829Z" fill="black"/>
<path d="M133.884 454.21L334.979 383.694L370.259 446.712L133.884 454.21Z" fill="black"/>
<path d="M111.693 10.7207L72.2166 220.126L0 219.169L111.693 10.7207Z" fill="black"/>
<path d="M288.088 132.163L286.203 134.169L88.292 344.694C73.8769 360.028 74.6218 384.145 89.9557 398.56C105.29 412.975 129.406 412.23 143.821 396.896L341.732 186.37L344.089 183.863C345.783 184.823 347.594 185.579 349.482 186.109L373.563 192.868C377.377 193.938 379.886 197.577 379.529 201.523L379.208 205.08C378.539 212.495 381.317 219.806 386.742 224.906L399.467 236.869C409.214 246.032 424.543 245.558 433.706 235.812L474.285 192.646C483.448 182.899 482.974 167.57 473.228 158.407L460.502 146.444C455.077 141.344 447.609 139.023 440.249 140.149L436.718 140.689C432.802 141.288 429.015 139.009 427.711 135.268L419.479 111.65C418.195 107.966 416.04 104.647 413.198 101.974L361.826 53.6813C361.289 53.176 360.733 52.6988 360.16 52.2501C356.207 48.6251 353.269 45.9684 352.8 45.5454L352.779 45.5261L352.775 45.5226C352.748 45.4975 352.692 45.4468 352.621 45.3839L347.325 51.3801L352.62 45.3839C350.93 43.8913 346.402 40.8308 340.547 37.4537C334.469 33.9475 326.392 29.7714 317.299 26.1379C299.606 19.0679 276.007 13.2151 255.926 21.0699C253.839 21.8861 252.111 23.155 250.763 24.5891C242.878 32.9759 247.31 46.243 257.794 49.1372C284.69 56.5613 299.725 65.2762 307.747 75.8439L287.009 97.9046C277.846 107.651 278.319 122.98 288.066 132.143L288.088 132.163Z" stroke="black" stroke-width="16"/>
</svg>
