<svg width="192" height="192" viewBox="0 0 192 192" fill="none" xmlns="http://www.w3.org/2000/svg">
<g clip-path="url(#clip0_316_73)">
<g filter="url(#filter0_di_316_73)">
<path fill-rule="evenodd" clip-rule="evenodd" d="M64.8543 130.556C64.8543 130.556 62.0207 122.652 53.8183 117.581C46.7488 113.211 46.7557 118.625 52.4761 125.635C58.7658 133.342 71.5831 142.927 81.7065 147.558C98.9812 155.46 119.442 157.925 128.535 150.242C135.489 144.366 129.728 126.38 102.138 104.01C96.658 98.4813 90.3995 93.0738 84.1123 87.6416C73.4126 78.3968 62.6297 69.0802 55.4587 58.9711C39.3207 36.2215 38.6063 16.9149 54.5638 5.58062C81.7927 -10.9651 117.558 13.9164 126.165 20.4719C127.3 21.1336 128.373 21.8056 129.395 22.4834C126.941 22.3723 124.281 22.3226 121.227 22.2838C104.336 10.9771 93.2311 5.84025 82.8114 4.70207C82.3804 4.65498 81.9505 4.61474 81.5215 4.58118C75.9437 4.14495 70.503 4.83919 64.4059 6.32624C64.4061 6.32623 64.4063 6.32622 64.4066 6.32621C64.4065 6.32623 64.4064 6.32625 64.4063 6.32627C68.4264 6.14904 72.1247 6.16306 75.6966 6.45765C76.02 6.48432 76.3423 6.51329 76.6638 6.54463C86.1589 7.47033 94.8759 10.4605 106.55 17.2235L106.55 17.2233C110.425 19.468 114.625 22.1282 119.288 25.2665C125.204 24.4878 129.656 24.5558 133.843 25.6732C135.555 26.9874 137.144 28.2972 138.688 29.5708L138.689 29.5709C141.269 31.6987 143.728 33.7255 146.431 35.5034C150.022 37.8657 151.877 40.9865 153.142 44.2067C154.383 47.3665 156.324 48.3043 158.051 49.1386C159.575 49.8745 160.931 50.5299 161.493 52.5583C162.172 55.0048 161.177 56.8639 159.37 57.6659C157.358 60.2454 154.144 61.4327 147.326 62.1029C151.119 60.7794 153.449 59.5578 155.074 57.7888C153.702 57.4639 152.464 57.097 151.311 56.6602C147.951 57.9109 145.028 58.6745 140.913 59.5676C144.039 58.0248 145.983 56.4881 147.714 54.9029C147.282 54.6373 146.855 54.3536 146.431 54.0496C143.746 52.1264 139.571 50.4806 133.456 48.0842C131.554 47.3387 129.384 46.57 127.387 45.9155C128.251 47.1633 129.224 48.322 130.22 49.5082C132.106 51.7532 134.074 54.0969 135.544 57.3307C135.849 58.0029 136.145 58.6545 136.431 59.2849L136.431 59.285L136.431 59.2852C139.636 66.3462 141.632 70.7436 142.702 71.6477C144.077 72.4653 145.515 73.1668 146.826 73.8065L146.826 73.8065L146.826 73.8066L146.826 73.8067C148.769 74.7542 150.433 75.5663 151.203 76.42C147.426 75.1796 145.584 74.641 143.448 74.3321C145.628 76.8294 147.503 77.9659 151.203 79.8501C151.054 79.7921 150.797 79.7252 150.456 79.6366L150.456 79.6365L150.456 79.6365C148.321 79.0813 142.907 77.6736 140.316 72.2442C139.936 71.4476 139.54 70.5993 139.125 69.7092L139.125 69.7081C136.259 63.5633 132.463 55.4268 126.447 48.5317C126.75 53.4417 127.362 56.4939 128.187 60.6174C128.39 61.6301 128.606 62.7073 128.833 63.8926C126.51 60.7263 124.098 51.3321 122.707 44.5197C121.949 44.3283 121.378 44.2154 121.078 44.2067C119.888 45.2417 118.406 58.8863 125.552 68.9632C125.552 68.9632 127.585 68.7982 128.833 68.5158C130.149 68.218 132.561 67.621 132.561 67.621C132.561 67.621 130.772 68.6649 129.728 69.4106C128.95 69.9658 127.938 70.9019 127.938 70.9019C127.938 70.9019 130.667 71.1618 132.412 71.0511C134.419 70.9237 137.483 70.1563 137.483 70.1563C137.483 70.1563 133.607 72.7081 130.772 73.139C126.413 73.8013 121.725 72.9104 119.885 70.1563C118.049 67.409 117.423 64.6036 116.438 60.1887C115.751 57.1111 114.89 53.2515 113.323 48.0842C111.624 42.4837 108.44 36.8444 105.307 32.2942C99.2283 27.9035 83.1114 20.5348 72.758 19.7485C56.9887 18.5508 55.2237 26.228 55.4618 30.9944C56.0548 42.8645 62.9139 52.3186 72.758 61.5064C84.8037 72.7491 97.8768 84.2212 106.085 91.4244L106.085 91.4245L106.085 91.4246L106.093 91.4314L106.094 91.4323C107.029 92.2524 107.9 93.0171 108.7 93.7197C108.995 93.9789 109.305 94.2507 109.629 94.5349L109.64 94.5443L109.642 94.5457C120.15 103.752 145.383 125.858 141.957 149.198C139.921 163.068 129.152 171.889 118.841 173.656C103.23 176.332 89.843 172.191 74.8373 164.925L76.1881 159.936C99.6023 171.419 116.902 172.016 126.745 163.962C107.138 170.736 83.3888 161.058 73.9157 155.381C70.5885 175.814 50.6078 189.004 31 192C46.1558 181.721 53.6756 173.263 59.6599 155.854C48.4978 147.686 39.6711 137.208 37.4129 125.635C35.0267 113.406 42.1304 104.488 51.4322 105.8C74.6973 109.081 76.636 137.715 76.636 137.715L64.8543 130.556ZM130.051 32.2758C135.899 33.6102 137.895 35.5932 141.178 39.3991C135.447 37.7052 133.444 35.805 130.051 32.2758Z" fill="url(#paint0_radial_316_73)" shape-rendering="crispEdges"/>
<path d="M53.8183 117.581L53.5554 118.007L53.8183 117.581ZM64.8543 130.556L64.3836 130.725L64.4434 130.892L64.5947 130.983L64.8543 130.556ZM52.4761 125.635L52.8634 125.319L52.4761 125.635ZM81.7065 147.558L81.9145 147.103L81.7065 147.558ZM128.535 150.242L128.858 150.624L128.535 150.242ZM102.138 104.01L101.783 104.362L101.802 104.381L101.823 104.398L102.138 104.01ZM84.1123 87.6416L83.7854 88.0199L84.1123 87.6416ZM55.4587 58.9711L55.8665 58.6819L55.4587 58.9711ZM54.5638 5.58062L54.3042 5.15332L54.2889 5.16262L54.2743 5.17298L54.5638 5.58062ZM126.165 20.4719L125.862 20.8697L125.887 20.8884L125.913 20.9039L126.165 20.4719ZM129.395 22.4834L129.373 22.9829L131.177 23.0646L129.672 22.0667L129.395 22.4834ZM121.227 22.2838L120.949 22.6993L121.072 22.7819L121.221 22.7838L121.227 22.2838ZM82.8114 4.70207L82.7571 5.19911L82.7571 5.19911L82.8114 4.70207ZM81.5215 4.58118L81.5604 4.0827L81.5215 4.58118ZM64.4059 6.32624L64.2874 5.84048L64.4274 6.82577L64.4059 6.32624ZM64.4066 6.32621L64.5231 6.81245L64.3851 5.82667L64.4066 6.32621ZM64.4063 6.32627L64.2898 5.84003L64.4283 6.82579L64.4063 6.32627ZM75.6966 6.45765L75.7377 5.95934V5.95934L75.6966 6.45765ZM76.6638 6.54463L76.7123 6.04699L76.6638 6.54463ZM106.55 17.2235L106.3 17.6561L106.611 17.8365L106.881 17.5985L106.55 17.2235ZM106.55 17.2233L106.801 16.7907L106.49 16.6103L106.22 16.8483L106.55 17.2233ZM119.288 25.2665L119.009 25.6813L119.166 25.7869L119.353 25.7622L119.288 25.2665ZM133.843 25.6732L134.148 25.2766L134.069 25.2158L133.972 25.1901L133.843 25.6732ZM138.688 29.5708L138.37 29.9567L138.376 29.9613L138.688 29.5708ZM138.689 29.5709L139.007 29.1851L139.001 29.1805L138.689 29.5709ZM146.431 35.5034L146.156 35.9212L146.431 35.5034ZM153.142 44.2067L152.677 44.3894L153.142 44.2067ZM158.051 49.1386L158.269 48.6884L158.051 49.1386ZM161.493 52.5583L161.012 52.6918L161.493 52.5583ZM159.37 57.6659L159.167 57.2089L159.052 57.2597L158.975 57.3584L159.37 57.6659ZM147.326 62.1029L147.161 61.6308L147.375 62.6005L147.326 62.1029ZM155.074 57.7888L155.442 58.127L156.019 57.4988L155.189 57.3023L155.074 57.7888ZM151.311 56.6602L151.488 56.1927L151.313 56.1261L151.137 56.1916L151.311 56.6602ZM140.913 59.5676L140.692 59.1192L141.019 60.0562L140.913 59.5676ZM147.714 54.9029L148.052 55.2717L148.541 54.8239L147.976 54.4769L147.714 54.9029ZM146.431 54.0496L146.722 53.6432L146.722 53.6432L146.431 54.0496ZM133.456 48.0842L133.274 48.5497L133.456 48.0842ZM127.387 45.9155L127.543 45.4404L126.129 44.9771L126.976 46.2002L127.387 45.9155ZM130.22 49.5082L130.603 49.1866L130.22 49.5082ZM135.544 57.3307L135.999 57.1238V57.1238L135.544 57.3307ZM136.431 59.2849L135.976 59.4915L135.977 59.4944L136.431 59.2849ZM136.431 59.285L135.977 59.4945L135.981 59.5016L135.984 59.5086L136.431 59.285ZM136.431 59.2852L136.887 59.0786L136.883 59.07L136.879 59.0616L136.431 59.2852ZM142.702 71.6477L142.38 72.0297L142.411 72.0563L142.447 72.0774L142.702 71.6477ZM146.826 73.8065L147.058 73.3635L147.052 73.3602L147.045 73.3571L146.826 73.8065ZM146.826 73.8065L146.594 74.2495L146.602 74.2538L146.826 73.8065ZM146.826 73.8066L147.074 73.3725L147.062 73.3656L147.05 73.3594L146.826 73.8066ZM146.826 73.8067L146.578 74.2408L146.592 74.2489L146.607 74.2561L146.826 73.8067ZM151.203 76.42L151.047 76.895L152.834 77.482L151.574 76.0851L151.203 76.42ZM143.448 74.3321L143.52 73.8372L142.184 73.6441L143.071 74.6609L143.448 74.3321ZM151.203 79.8501L151.021 80.3159L151.43 79.4046L151.203 79.8501ZM150.456 79.6366L150.582 79.1525L150.571 79.1499L150.456 79.6366ZM150.456 79.6365L150.571 79.1498L150.555 79.146L150.538 79.1433L150.456 79.6365ZM150.456 79.6365L150.33 80.1204L150.352 80.126L150.374 80.1297L150.456 79.6365ZM140.316 72.2442L140.767 72.0289L140.316 72.2442ZM139.125 69.7092L138.671 69.9182L138.672 69.9206L139.125 69.7092ZM139.125 69.7081L139.579 69.4991L139.578 69.4967L139.125 69.7081ZM126.447 48.5317L126.823 48.2029L125.857 47.0952L125.948 48.5625L126.447 48.5317ZM128.187 60.6174L127.697 60.7156V60.7156L128.187 60.6174ZM128.833 63.8926L128.43 64.1884L129.324 63.7985L128.833 63.8926ZM122.707 44.5197L123.197 44.4197L123.134 44.1118L122.829 44.0349L122.707 44.5197ZM121.078 44.2067L121.092 43.7069L120.897 43.7013L120.75 43.8294L121.078 44.2067ZM125.552 68.9632L125.144 69.2524L125.309 69.4846L125.592 69.4615L125.552 68.9632ZM128.833 68.5158L128.943 69.0034H128.943L128.833 68.5158ZM132.561 67.621L132.813 68.0528L132.441 67.1356L132.561 67.621ZM129.728 69.4106L129.437 69.0037L129.728 69.4106ZM127.938 70.9019L127.599 70.5348L126.778 71.2937L127.891 71.3997L127.938 70.9019ZM132.412 71.0511L132.38 70.5521L132.412 71.0511ZM137.483 70.1563L137.758 70.5739L137.361 69.6712L137.483 70.1563ZM130.772 73.139L130.847 73.6333L130.772 73.139ZM119.885 70.1563L119.469 70.434L119.885 70.1563ZM116.438 60.1887L116.926 60.0798L116.438 60.1887ZM113.323 48.0842L113.801 47.9391L113.323 48.0842ZM105.307 32.2942L105.719 32.0107L105.67 31.9395L105.6 31.8889L105.307 32.2942ZM72.758 19.7485L72.7959 19.2499L72.758 19.7485ZM55.4618 30.9944L55.9612 30.9695L55.4618 30.9944ZM72.758 61.5064L72.4168 61.872L72.758 61.5064ZM106.085 91.4244L106.439 91.0708L106.427 91.0593L106.415 91.0486L106.085 91.4244ZM106.085 91.4246L105.732 91.7781L105.743 91.7897L105.756 91.8006L106.085 91.4246ZM106.093 91.4314L105.764 91.8074L105.764 91.8082L106.093 91.4314ZM106.094 91.4323L106.424 91.0565L106.423 91.0555L106.094 91.4323ZM108.7 93.7197L109.03 93.3441H109.03L108.7 93.7197ZM109.629 94.5349L109.3 94.911V94.911L109.629 94.5349ZM109.64 94.5443L109.97 94.1684L109.969 94.1682L109.64 94.5443ZM109.642 94.5457L109.312 94.9215L109.312 94.9218L109.642 94.5457ZM141.957 149.198L142.452 149.271L141.957 149.198ZM118.841 173.656L118.756 173.164L118.841 173.656ZM74.8373 164.925L74.3547 164.795L74.2464 165.195L74.6194 165.375L74.8373 164.925ZM76.1881 159.936L76.4082 159.487L75.8639 159.22L75.7054 159.805L76.1881 159.936ZM126.745 163.962L127.062 164.349L126.582 163.49L126.745 163.962ZM73.9157 155.381L74.1727 154.952L73.5406 154.573L73.4222 155.301L73.9157 155.381ZM31 192L30.7194 191.586L31.0755 192.494L31 192ZM59.6599 155.854L60.1327 156.016L60.2525 155.668L59.9551 155.45L59.6599 155.854ZM37.4129 125.635L37.9037 125.539L37.4129 125.635ZM51.4322 105.8L51.502 105.305L51.4322 105.8ZM76.636 137.715L76.3763 138.142L77.1999 138.642L77.1348 137.681L76.636 137.715ZM130.051 32.2758L130.162 31.7884L128.531 31.4161L129.691 32.6224L130.051 32.2758ZM141.178 39.3991L141.036 39.8786L142.668 40.3608L141.557 39.0726L141.178 39.3991ZM53.5554 118.007C57.5798 120.495 60.2905 123.68 61.9957 126.247C62.8479 127.53 63.4473 128.656 63.8327 129.458C64.0253 129.86 64.1643 130.18 64.2545 130.398C64.2996 130.507 64.3325 130.59 64.3538 130.646C64.3645 130.673 64.3723 130.694 64.3772 130.707C64.3797 130.714 64.3814 130.719 64.3825 130.722C64.383 130.723 64.3834 130.724 64.3836 130.725C64.3837 130.725 64.3837 130.725 64.3837 130.725C64.3838 130.725 64.3837 130.725 64.3837 130.725C64.3837 130.725 64.3836 130.725 64.8543 130.556C65.325 130.387 65.3249 130.387 65.3248 130.387C65.3248 130.387 65.3247 130.387 65.3246 130.386C65.3244 130.386 65.3242 130.385 65.324 130.385C65.3235 130.383 65.3228 130.381 65.3219 130.379C65.3202 130.374 65.3178 130.368 65.3146 130.359C65.3084 130.342 65.2992 130.318 65.2871 130.287C65.2629 130.224 65.227 130.132 65.1786 130.016C65.0818 129.782 64.9353 129.445 64.7341 129.025C64.3319 128.188 63.7102 127.021 62.8287 125.694C61.0666 123.041 58.2592 119.739 54.0812 117.156L53.5554 118.007ZM52.8634 125.319C51.4516 123.589 50.4018 121.968 49.7278 120.586C49.0448 119.184 48.7791 118.091 48.8485 117.39C48.8821 117.052 48.9888 116.848 49.119 116.727C49.2474 116.608 49.4603 116.511 49.8231 116.51C50.5802 116.508 51.804 116.924 53.5554 118.007L54.0812 117.156C52.2978 116.054 50.8715 115.507 49.8203 115.51C49.2789 115.512 48.7982 115.66 48.4381 115.995C48.0799 116.328 47.9034 116.788 47.8534 117.291C47.756 118.274 48.1227 119.575 48.8289 121.024C49.5442 122.491 50.6403 124.176 52.0887 125.951L52.8634 125.319ZM81.9145 147.103C71.8513 142.5 59.0987 132.959 52.8634 125.319L52.0887 125.951C58.433 133.725 71.3148 143.354 81.4985 148.012L81.9145 147.103ZM128.212 149.86C123.817 153.574 116.593 154.886 108.227 154.246C99.8831 153.607 90.5066 151.033 81.9145 147.103L81.4985 148.012C90.1811 151.984 99.6722 154.594 108.151 155.243C116.607 155.89 124.16 154.593 128.858 150.624L128.212 149.86ZM101.823 104.398C115.587 115.559 123.867 125.595 127.844 133.535C129.832 137.506 130.731 140.926 130.724 143.684C130.718 146.433 129.815 148.506 128.212 149.86L128.858 150.624C130.732 149.04 131.717 146.662 131.724 143.686C131.731 140.721 130.769 137.144 128.738 133.088C124.674 124.973 116.279 114.832 102.453 103.622L101.823 104.398ZM83.7854 88.0199C90.0758 93.4549 96.319 98.8495 101.783 104.362L102.493 103.658C96.997 98.1131 90.7233 92.6928 84.4392 87.2632L83.7854 88.0199ZM55.0508 59.2604C62.2639 69.4287 73.0983 78.786 83.7854 88.0199L84.4392 87.2632C73.7269 78.0076 62.9955 68.7316 55.8665 58.6819L55.0508 59.2604ZM54.2743 5.17298C46.1651 10.9328 42.2706 18.7475 42.4756 28.0062C42.6798 37.2326 46.9521 47.8436 55.0508 59.2604L55.8665 58.6819C47.8273 47.349 43.6734 36.9319 43.4753 27.9841C43.278 19.0685 47.0051 11.5628 54.8534 5.98826L54.2743 5.17298ZM126.468 20.0742C122.148 16.7839 111.009 8.891 97.5212 3.89445C84.0425 -1.09862 68.1109 -3.2364 54.3042 5.15332L54.8235 6.00792C68.2456 -2.14811 83.811 -0.117974 97.1738 4.83218C110.527 9.77885 121.575 17.6044 125.862 20.8697L126.468 20.0742ZM129.672 22.0667C128.642 21.3839 127.561 20.7068 126.417 20.04L125.913 20.9039C127.039 21.5604 128.104 22.2273 129.119 22.9002L129.672 22.0667ZM121.221 22.7838C124.274 22.8225 126.927 22.8721 129.373 22.9829L129.418 21.9839C126.955 21.8724 124.288 21.8226 121.233 21.7838L121.221 22.7838ZM82.7571 5.19911C93.0508 6.32352 104.071 11.4015 120.949 22.6993L121.505 21.8683C104.601 10.5527 93.4115 5.35698 82.8657 4.20503L82.7571 5.19911ZM82.8657 4.20503C82.4296 4.15738 81.9946 4.11666 81.5604 4.0827L81.4825 5.07966C81.9064 5.11281 82.3312 5.15258 82.7571 5.19911L82.8657 4.20503ZM81.5604 4.0827C75.9131 3.64103 70.4167 4.34559 64.2874 5.84048L64.5244 6.812C70.5893 5.3328 75.9743 4.64886 81.4825 5.07966L81.5604 4.0827ZM64.4274 6.82577L64.4281 6.82574L64.3851 5.82667L64.3844 5.8267L64.4274 6.82577ZM64.5228 6.81251L64.5231 6.81245L64.2901 5.83997L64.2898 5.84003L64.5228 6.81251ZM75.7377 5.95934C72.139 5.66254 68.4187 5.64889 64.3843 5.82676L64.4283 6.82579C68.4341 6.64918 72.1104 6.66358 75.6555 6.95596L75.7377 5.95934ZM75.6555 6.95596C75.9764 6.98243 76.2963 7.01118 76.6152 7.04227L76.7123 6.04699C76.3883 6.01541 76.0635 5.98621 75.7377 5.95934L75.6555 6.95596ZM76.6152 7.04227C86.0206 7.95923 94.6688 10.9184 106.3 17.6561L106.801 16.7908C95.083 10.0026 86.2971 6.98144 76.7123 6.04699L76.6152 7.04227ZM106.881 17.5985L106.881 17.5984L106.22 16.8483L106.219 16.8484L106.881 17.5985ZM119.567 24.8517C114.898 21.709 110.688 19.0424 106.801 16.7907L106.3 17.656C110.162 19.8935 114.353 22.5473 119.009 25.6813L119.567 24.8517ZM133.972 25.1901C129.698 24.0495 125.174 23.9874 119.223 24.7708L119.353 25.7622C125.234 24.9881 129.614 25.062 133.715 26.1562L133.972 25.1901ZM139.006 29.185C137.462 27.9121 135.867 26.5969 134.148 25.2766L133.539 26.0697C135.242 27.3779 136.825 28.6823 138.37 29.9566L139.006 29.185ZM139.001 29.1805L139.001 29.1804L138.376 29.9613L138.376 29.9614L139.001 29.1805ZM146.706 35.0857C144.029 33.325 141.591 31.3158 139.007 29.1851L138.37 29.9567C140.948 32.0816 143.427 34.1259 146.156 35.9212L146.706 35.0857ZM153.607 44.0239C152.32 40.7462 150.412 37.5239 146.706 35.0857L146.156 35.9212C149.632 38.2075 151.435 41.2268 152.677 44.3894L153.607 44.0239ZM158.269 48.6884C157.4 48.269 156.54 47.8508 155.74 47.1651C154.948 46.4869 154.199 45.5312 153.607 44.0239L152.677 44.3894C153.325 46.042 154.168 47.1351 155.089 47.9244C156.001 48.7061 156.975 49.174 157.834 49.5889L158.269 48.6884ZM161.975 52.4247C161.348 50.1602 159.788 49.4224 158.269 48.6884L157.834 49.5889C159.361 50.3266 160.515 50.8995 161.012 52.6918L161.975 52.4247ZM159.573 58.1229C160.579 57.6765 161.375 56.9266 161.82 55.9331C162.265 54.9398 162.34 53.7417 161.975 52.4247L161.012 52.6918C161.325 53.8214 161.242 54.7762 160.907 55.5245C160.572 56.2726 159.968 56.8533 159.167 57.2089L159.573 58.1229ZM147.375 62.6005C154.203 61.9293 157.613 60.7314 159.764 57.9734L158.975 57.3584C157.103 59.7594 154.086 60.936 147.277 61.6053L147.375 62.6005ZM154.705 57.4506C153.168 59.125 150.936 60.3136 147.161 61.6308L147.491 62.575C151.302 61.2451 153.73 59.9905 155.442 58.127L154.705 57.4506ZM151.134 57.1278C152.311 57.5737 153.57 57.9466 154.958 58.2753L155.189 57.3023C153.834 56.9812 152.616 56.6202 151.488 56.1927L151.134 57.1278ZM141.019 60.0562C145.146 59.1606 148.094 58.3911 151.485 57.1288L151.137 56.1916C147.807 57.4307 144.911 58.1884 140.807 59.079L141.019 60.0562ZM147.376 54.5341C145.671 56.0956 143.766 57.6021 140.692 59.1192L141.134 60.016C144.312 58.4475 146.294 56.8806 148.052 55.2717L147.376 54.5341ZM146.14 54.4561C146.573 54.7667 147.009 55.0569 147.452 55.329L147.976 54.4769C147.554 54.2176 147.137 53.9405 146.722 53.6432L146.14 54.4561ZM133.274 48.5497C139.416 50.9569 143.518 52.5782 146.14 54.4561L146.722 53.6432C143.974 51.6746 139.726 50.0044 133.638 47.6187L133.274 48.5497ZM127.231 46.3907C129.221 47.0427 131.382 47.8083 133.274 48.5497L133.638 47.6187C131.726 46.8691 129.547 46.0972 127.543 45.4404L127.231 46.3907ZM130.603 49.1866C129.605 47.9974 128.647 46.8564 127.798 45.6309L126.976 46.2002C127.856 47.4703 128.844 48.6466 129.838 49.8297L130.603 49.1866ZM135.999 57.1238C134.497 53.8202 132.486 51.429 130.603 49.1866L129.838 49.8297C131.725 52.0774 133.651 54.3737 135.089 57.5376L135.999 57.1238ZM136.887 59.0782C136.6 58.4479 136.305 57.7961 135.999 57.1238L135.089 57.5376C135.394 58.2096 135.69 58.8611 135.976 59.4915L136.887 59.0782ZM136.885 59.0755L136.885 59.0753L135.977 59.4944L135.977 59.4945L136.885 59.0755ZM136.879 59.0616L136.879 59.0614L135.984 59.5086L135.984 59.5088L136.879 59.0616ZM143.025 71.2656C142.827 71.0986 142.538 70.7198 142.151 70.0714C141.773 69.4386 141.33 68.5973 140.816 67.5541C139.787 65.4681 138.49 62.6122 136.887 59.0786L135.976 59.4918C137.577 63.0192 138.881 65.8926 139.919 67.9965C140.438 69.0483 140.894 69.9172 141.292 70.5838C141.681 71.2349 142.042 71.7447 142.38 72.0297L143.025 71.2656ZM147.045 73.3571C145.731 72.7161 144.312 72.0233 142.958 71.2179L142.447 72.0774C143.842 72.9073 145.298 73.6175 146.607 74.2558L147.045 73.3571ZM147.058 73.3636L147.058 73.3635L146.594 74.2494L146.594 74.2495L147.058 73.3636ZM147.05 73.3594L147.05 73.3593L146.602 74.2538L146.603 74.2538L147.05 73.3594ZM147.074 73.3726L147.074 73.3725L146.578 74.2407L146.578 74.2408L147.074 73.3726ZM151.574 76.0851C151.133 75.5956 150.465 75.1468 149.701 74.7136C148.93 74.2762 148.013 73.8291 147.046 73.3573L146.607 74.2561C147.582 74.7318 148.469 75.1645 149.208 75.5835C149.954 76.0066 150.503 76.3908 150.832 76.7549L151.574 76.0851ZM143.377 74.8269C145.465 75.129 147.269 75.6544 151.047 76.895L151.359 75.945C147.583 74.7048 145.704 74.1531 143.52 73.8372L143.377 74.8269ZM151.43 79.4046C147.747 77.529 145.941 76.4275 143.825 74.0033L143.071 74.6609C145.316 77.2313 147.26 78.4028 150.976 80.2956L151.43 79.4046ZM150.331 80.1205C150.688 80.2134 150.907 80.2715 151.021 80.3159L151.385 79.3843C151.201 79.3127 150.906 79.237 150.582 79.1527L150.331 80.1205ZM150.342 80.1232L150.342 80.1233L150.571 79.1499L150.571 79.1498L150.342 80.1232ZM150.374 80.1297L150.374 80.1297L150.538 79.1433L150.538 79.1433L150.374 80.1297ZM139.865 72.4595C142.564 78.1159 148.2 79.5664 150.33 80.1204L150.582 79.1526C148.442 78.5962 143.25 77.2313 140.767 72.0289L139.865 72.4595ZM138.672 69.9206C139.087 70.8102 139.484 71.6605 139.865 72.4595L140.767 72.0289C140.388 71.2346 139.994 70.3884 139.578 69.4978L138.672 69.9206ZM138.67 69.917L138.671 69.9182L139.58 69.5002L139.579 69.4991L138.67 69.917ZM126.07 48.8604C132.034 55.6948 135.803 63.7685 138.672 69.9194L139.578 69.4967C136.715 63.3581 132.893 55.1587 126.823 48.2029L126.07 48.8604ZM128.677 60.5192C127.852 56.3991 127.247 53.3749 126.946 48.5008L125.948 48.5625C126.254 53.5085 126.871 56.5887 127.697 60.7156L128.677 60.5192ZM129.324 63.7985C129.096 62.6109 128.88 61.5317 128.677 60.5192L127.697 60.7156C127.9 61.7284 128.115 62.8038 128.342 63.9868L129.324 63.7985ZM122.217 44.6197C122.914 48.0352 123.869 52.1018 124.941 55.7157C126.006 59.3037 127.21 62.5255 128.43 64.1884L129.236 63.5969C128.133 62.0935 126.969 59.035 125.9 55.4312C124.838 51.8533 123.89 47.8166 123.197 44.4197L122.217 44.6197ZM121.063 44.7065C121.301 44.7133 121.819 44.8112 122.585 45.0045L122.829 44.0349C122.079 43.8455 121.456 43.7174 121.092 43.7069L121.063 44.7065ZM125.96 68.674C122.456 63.7323 121.057 57.8985 120.687 53.1554C120.503 50.7862 120.576 48.7023 120.766 47.1555C120.861 46.3811 120.985 45.7509 121.116 45.2916C121.182 45.0615 121.247 44.8839 121.306 44.7564C121.371 44.6179 121.411 44.5797 121.406 44.584L120.75 43.8294C120.596 43.963 120.485 44.1527 120.4 44.3328C120.311 44.5238 120.229 44.7553 120.155 45.017C120.005 45.5413 119.873 46.2257 119.774 47.0334C119.575 48.651 119.501 50.8021 119.691 53.2331C120.069 58.0902 121.503 64.1171 125.144 69.2524L125.96 68.674ZM128.722 68.0281C128.126 68.163 127.328 68.2725 126.667 68.3487C126.339 68.3865 126.049 68.4156 125.842 68.4352C125.738 68.445 125.655 68.4525 125.598 68.4574C125.57 68.4599 125.548 68.4618 125.533 68.463C125.526 68.4636 125.52 68.4641 125.517 68.4644C125.515 68.4645 125.513 68.4647 125.513 68.4647C125.512 68.4648 125.512 68.4648 125.512 68.4648C125.512 68.4648 125.511 68.4648 125.511 68.4648C125.511 68.4648 125.511 68.4648 125.511 68.4648C125.511 68.4648 125.511 68.4648 125.552 68.9632C125.592 69.4615 125.592 69.4615 125.592 69.4615C125.592 69.4615 125.592 69.4615 125.592 69.4615C125.593 69.4615 125.593 69.4615 125.593 69.4615C125.593 69.4615 125.594 69.4614 125.594 69.4614C125.595 69.4613 125.597 69.4612 125.599 69.461C125.603 69.4607 125.609 69.4602 125.617 69.4595C125.633 69.4582 125.656 69.4562 125.685 69.4536C125.744 69.4485 125.83 69.4408 125.936 69.4308C126.149 69.4106 126.445 69.3808 126.782 69.3421C127.449 69.2652 128.292 69.1509 128.943 69.0034L128.722 68.0281ZM132.561 67.621C132.441 67.1356 132.441 67.1356 132.441 67.1356C132.441 67.1356 132.441 67.1356 132.441 67.1356C132.441 67.1356 132.441 67.1357 132.441 67.1357C132.44 67.1358 132.44 67.1359 132.439 67.136C132.438 67.1363 132.437 67.1367 132.434 67.1373C132.43 67.1384 132.423 67.1401 132.414 67.1423C132.396 67.1468 132.369 67.1533 132.335 67.1617C132.267 67.1786 132.168 67.2031 132.044 67.2333C131.798 67.2939 131.456 67.3777 131.072 67.4708C130.305 67.6573 129.376 67.8802 128.722 68.0281L128.943 69.0034C129.605 68.8536 130.541 68.6291 131.308 68.4426C131.693 68.3492 132.036 68.2652 132.283 68.2045C132.407 68.1741 132.506 68.1496 132.575 68.1326C132.609 68.1242 132.636 68.1176 132.654 68.1131C132.663 68.1109 132.67 68.1092 132.674 68.1081C132.677 68.1075 132.678 68.1071 132.68 68.1068C132.68 68.1066 132.681 68.1065 132.681 68.1064C132.681 68.1064 132.681 68.1064 132.681 68.1063C132.681 68.1063 132.681 68.1063 132.681 68.1063C132.681 68.1063 132.681 68.1063 132.561 67.621ZM130.018 69.8175C130.525 69.4554 131.221 69.0157 131.797 68.6624C132.084 68.4867 132.338 68.3341 132.521 68.2254C132.612 68.1711 132.686 68.1278 132.736 68.0982C132.761 68.0834 132.781 68.0719 132.794 68.0643C132.8 68.0604 132.805 68.0576 132.808 68.0556C132.81 68.0547 132.811 68.054 132.812 68.0535C132.812 68.0533 132.813 68.0531 132.813 68.053C132.813 68.0529 132.813 68.0529 132.813 68.0529C132.813 68.0529 132.813 68.0528 132.813 68.0528C132.813 68.0528 132.813 68.0528 132.561 67.621C132.309 67.1891 132.309 67.1891 132.309 67.1891C132.309 67.1891 132.309 67.1891 132.309 67.1891C132.309 67.1892 132.309 67.1892 132.309 67.1893C132.309 67.1895 132.308 67.1897 132.308 67.1899C132.307 67.1905 132.305 67.1913 132.304 67.1923C132.3 67.1944 132.295 67.1974 132.288 67.2014C132.274 67.2094 132.254 67.2212 132.229 67.2364C132.177 67.2667 132.102 67.3108 132.01 67.366C131.824 67.4764 131.566 67.6313 131.275 67.8098C130.695 68.165 129.974 68.62 129.437 69.0037L130.018 69.8175ZM127.938 70.9019C128.277 71.269 128.277 71.2691 128.277 71.2691C128.277 71.2691 128.277 71.2691 128.277 71.2691C128.277 71.269 128.277 71.269 128.278 71.269C128.278 71.2689 128.278 71.2688 128.278 71.2686C128.278 71.2682 128.279 71.2676 128.28 71.2668C128.282 71.2652 128.284 71.2627 128.288 71.2593C128.295 71.2527 128.306 71.2427 128.32 71.2297C128.349 71.2038 128.39 71.1658 128.443 71.1185C128.548 71.0237 128.697 70.8915 128.869 70.7424C129.216 70.4416 129.649 70.0811 130.018 69.8175L129.437 69.0037C129.029 69.2953 128.567 69.6805 128.214 69.9866C128.036 70.1408 127.883 70.2774 127.774 70.3755C127.719 70.4246 127.676 70.4641 127.646 70.4915C127.631 70.5052 127.619 70.5159 127.611 70.5232C127.607 70.5269 127.604 70.5297 127.602 70.5317C127.601 70.5326 127.6 70.5334 127.6 70.5339C127.599 70.5342 127.599 70.5344 127.599 70.5346C127.599 70.5346 127.599 70.5347 127.599 70.5347C127.599 70.5348 127.599 70.5348 127.599 70.5348C127.599 70.5348 127.599 70.5348 127.938 70.9019ZM132.38 70.5521C131.54 70.6054 130.446 70.5698 129.549 70.5188C129.104 70.4935 128.712 70.4648 128.432 70.4424C128.292 70.4312 128.179 70.4216 128.103 70.4148C128.064 70.4114 128.035 70.4088 128.015 70.4069C128.005 70.406 127.997 70.4053 127.992 70.4049C127.99 70.4046 127.988 70.4044 127.987 70.4043C127.986 70.4043 127.986 70.4042 127.986 70.4042C127.986 70.4042 127.985 70.4042 127.985 70.4042C127.985 70.4042 127.985 70.4042 127.985 70.4042C127.985 70.4042 127.985 70.4042 127.938 70.9019C127.891 71.3997 127.891 71.3997 127.891 71.3997C127.891 71.3997 127.891 71.3997 127.891 71.3997C127.891 71.3997 127.891 71.3997 127.891 71.3998C127.892 71.3998 127.892 71.3998 127.893 71.3999C127.894 71.4 127.897 71.4002 127.899 71.4005C127.905 71.401 127.913 71.4018 127.923 71.4027C127.944 71.4047 127.975 71.4075 128.015 71.4109C128.094 71.418 128.209 71.4278 128.352 71.4392C128.638 71.4621 129.038 71.4914 129.492 71.5172C130.397 71.5686 131.54 71.6074 132.444 71.5501L132.38 70.5521ZM137.483 70.1563C137.361 69.6712 137.361 69.6712 137.361 69.6712C137.361 69.6712 137.361 69.6712 137.361 69.6713C137.361 69.6713 137.361 69.6713 137.361 69.6713C137.361 69.6714 137.36 69.6715 137.359 69.6717C137.358 69.672 137.356 69.6725 137.353 69.6732C137.348 69.6746 137.339 69.6767 137.328 69.6794C137.306 69.6849 137.273 69.6931 137.229 69.7035C137.143 69.7244 137.017 69.7545 136.86 69.7911C136.544 69.8643 136.103 69.9632 135.6 70.066C134.587 70.273 133.348 70.4907 132.38 70.5521L132.444 71.5501C133.483 71.4841 134.779 71.2544 135.8 71.0458C136.314 70.9408 136.764 70.8399 137.086 70.7652C137.247 70.7279 137.376 70.697 137.465 70.6754C137.509 70.6647 137.544 70.6562 137.567 70.6504C137.579 70.6475 137.588 70.6452 137.594 70.6437C137.598 70.6429 137.6 70.6424 137.602 70.6419C137.602 70.6417 137.603 70.6416 137.603 70.6415C137.604 70.6414 137.604 70.6414 137.604 70.6413C137.604 70.6413 137.604 70.6413 137.604 70.6413C137.604 70.6413 137.604 70.6413 137.483 70.1563ZM130.847 73.6333C132.351 73.4046 134.091 72.625 135.422 71.9291C136.095 71.5774 136.677 71.2397 137.091 70.9898C137.298 70.8648 137.464 70.7615 137.578 70.6892C137.635 70.653 137.68 70.6245 137.71 70.6049C137.725 70.5951 137.737 70.5876 137.745 70.5823C137.749 70.5797 137.752 70.5777 137.754 70.5763C137.755 70.5756 137.756 70.575 137.757 70.5746C137.757 70.5744 137.757 70.5742 137.757 70.5741C137.757 70.5741 137.757 70.574 137.757 70.574C137.758 70.5739 137.758 70.5739 137.483 70.1563C137.208 69.7387 137.208 69.7386 137.208 69.7386C137.208 69.7386 137.208 69.7386 137.208 69.7386C137.208 69.7387 137.208 69.7387 137.207 69.7388C137.207 69.7391 137.207 69.7394 137.206 69.74C137.204 69.741 137.202 69.7426 137.198 69.7449C137.191 69.7493 137.181 69.7561 137.167 69.7651C137.139 69.7831 137.097 69.8099 137.043 69.8443C136.934 69.9132 136.775 70.0127 136.575 70.1336C136.173 70.3757 135.609 70.7028 134.959 71.0429C133.643 71.7307 132.027 72.4424 130.696 72.6447L130.847 73.6333ZM119.469 70.434C120.484 71.9532 122.25 72.9133 124.263 73.414C126.284 73.9166 128.613 73.9727 130.847 73.6333L130.696 72.6447C128.572 72.9675 126.378 72.9094 124.505 72.4436C122.624 71.9759 121.126 71.1135 120.3 69.8785L119.469 70.434ZM115.95 60.2976C116.931 64.6934 117.572 67.5954 119.469 70.434L120.3 69.8785C118.526 67.2226 117.915 64.5138 116.926 60.0798L115.95 60.2976ZM112.844 48.2293C114.406 53.3778 115.264 57.2223 115.95 60.2976L116.926 60.0798C116.239 56.9999 115.374 53.1251 113.801 47.9391L112.844 48.2293ZM104.895 32.5778C108.013 37.1057 111.166 42.6971 112.844 48.2293L113.801 47.9391C112.082 42.2703 108.867 36.583 105.719 32.0107L104.895 32.5778ZM72.7201 20.2471C77.819 20.6343 84.3793 22.6499 90.4462 25.1325C96.5104 27.614 102.02 30.5363 105.015 32.6996L105.6 31.8889C102.516 29.6614 96.9273 26.7041 90.8249 24.207C84.7252 21.711 78.0504 19.649 72.7959 19.2499L72.7201 20.2471ZM55.9612 30.9695C55.8451 28.6468 56.2235 25.7095 58.4594 23.4898C60.6945 21.2709 64.903 19.6534 72.7201 20.2471L72.7959 19.2499C64.8437 18.646 60.2851 20.2682 57.7548 22.7801C55.2254 25.2912 54.8403 28.5757 54.9624 31.0194L55.9612 30.9695ZM73.0991 61.1409C63.2853 51.9813 56.5443 42.6423 55.9612 30.9695L54.9624 31.0194C55.5653 43.0867 62.5425 52.6559 72.4168 61.872L73.0991 61.1409ZM106.415 91.0486C98.2059 83.8449 85.1385 72.3776 73.0991 61.1409L72.4168 61.872C84.469 73.1207 97.5476 84.5976 105.755 91.8002L106.415 91.0486ZM106.439 91.071L106.439 91.0708L105.732 91.7779L105.732 91.7781L106.439 91.071ZM106.439 91.071L106.439 91.071L105.732 91.7781L105.732 91.7781L106.439 91.071ZM106.423 91.0554L106.415 91.0485L105.756 91.8006L105.764 91.8074L106.423 91.0554ZM106.423 91.0555L106.422 91.0546L105.764 91.8082L105.766 91.8091L106.423 91.0555ZM109.03 93.3441C108.23 92.6414 107.358 91.8766 106.424 91.0565L105.764 91.8081C106.699 92.6282 107.57 93.3928 108.37 94.0953L109.03 93.3441ZM109.959 94.1588C109.634 93.8746 109.324 93.603 109.03 93.3441L108.37 94.0953C108.665 94.3548 108.975 94.6269 109.3 94.911L109.959 94.1588ZM109.969 94.1682L109.959 94.1588L109.3 94.911L109.31 94.9204L109.969 94.1682ZM109.971 94.1698L109.97 94.1684L109.31 94.9201L109.312 94.9215L109.971 94.1698ZM142.452 149.271C144.194 137.402 138.645 125.903 131.425 116.272C124.196 106.63 115.223 98.7709 109.971 94.1696L109.312 94.9218C114.568 99.5266 123.466 107.324 130.625 116.872C137.791 126.43 143.146 137.654 141.462 149.125L142.452 149.271ZM118.925 174.149C129.432 172.348 140.382 163.371 142.452 149.271L141.462 149.125C139.46 162.764 128.872 171.429 118.756 173.164L118.925 174.149ZM74.6194 165.375C89.6622 172.659 103.164 176.851 118.925 174.149L118.756 173.164C103.297 175.814 90.0237 171.723 75.0552 164.475L74.6194 165.375ZM75.7054 159.805L74.3547 164.795L75.3199 165.056L76.6707 160.066L75.7054 159.805ZM126.428 163.575C116.832 171.427 99.7947 170.957 76.4082 159.487L75.9679 160.385C99.41 171.882 116.972 172.605 127.062 164.349L126.428 163.575ZM73.6586 155.81C78.4358 158.673 86.7887 162.532 96.4142 164.827C106.036 167.121 116.981 167.865 126.908 164.435L126.582 163.49C116.902 166.834 106.169 166.125 96.6461 163.854C87.127 161.584 78.8687 157.766 74.1727 154.952L73.6586 155.81ZM31.0755 192.494C50.8007 189.481 71.0336 176.192 74.4092 155.461L73.4222 155.301C70.1434 175.437 50.4148 188.528 30.9245 191.506L31.0755 192.494ZM59.187 155.691C56.2084 164.356 52.8572 170.767 48.3809 176.286C43.9022 181.807 38.278 186.46 30.7194 191.586L31.2806 192.414C38.8778 187.261 44.5914 182.545 49.1576 176.916C53.7262 171.283 57.127 164.76 60.1327 156.016L59.187 155.691ZM36.9222 125.73C39.215 137.481 48.1562 148.055 59.3646 156.257L59.9551 155.45C48.8394 147.316 40.1273 136.934 37.9037 125.539L36.9222 125.73ZM51.502 105.305C46.6599 104.622 42.3804 106.608 39.6366 110.343C36.8991 114.07 35.7074 119.505 36.9222 125.73L37.9037 125.539C36.7322 119.536 37.8993 114.397 40.4425 110.935C42.9794 107.482 46.9027 105.666 51.3623 106.295L51.502 105.305ZM76.636 137.715C77.1348 137.681 77.1348 137.681 77.1348 137.68C77.1348 137.68 77.1347 137.679 77.1347 137.679C77.1346 137.678 77.1345 137.676 77.1344 137.674C77.1341 137.67 77.1337 137.664 77.1331 137.657C77.132 137.642 77.1304 137.62 77.1281 137.592C77.1235 137.536 77.1165 137.453 77.1063 137.345C77.086 137.13 77.0533 136.816 77.0034 136.416C76.9036 135.616 76.7352 134.473 76.4599 133.092C75.9096 130.331 74.9307 126.611 73.2147 122.783C69.7834 115.128 63.3696 106.978 51.502 105.305L51.3623 106.295C62.7599 107.902 68.948 115.709 72.3022 123.192C73.9791 126.933 74.9389 130.576 75.4792 133.287C75.7492 134.642 75.9139 135.761 76.0111 136.54C76.0597 136.929 76.0913 137.233 76.1107 137.439C76.1205 137.542 76.1271 137.621 76.1313 137.673C76.1334 137.699 76.1349 137.718 76.1359 137.731C76.1363 137.737 76.1367 137.742 76.1369 137.745C76.137 137.746 76.137 137.747 76.1371 137.748C76.1371 137.748 76.1371 137.748 76.1371 137.749C76.1371 137.749 76.1371 137.748 76.636 137.715ZM64.5947 130.983L76.3763 138.142L76.8956 137.287L65.1139 130.129L64.5947 130.983ZM129.94 32.7633C132.822 33.4208 134.718 34.2296 136.292 35.3214C137.874 36.4195 139.157 37.8215 140.799 39.7257L141.557 39.0726C139.916 37.1708 138.56 35.6784 136.862 34.4999C135.154 33.3151 133.129 32.4653 130.162 31.7884L129.94 32.7633ZM141.32 38.9196C138.49 38.0831 136.608 37.2041 135.021 36.1136C133.427 35.0182 132.11 33.696 130.411 31.9293L129.691 32.6224C131.385 34.3848 132.766 35.7773 134.454 36.9377C136.15 38.1031 138.135 39.0211 141.036 39.8786L141.32 38.9196Z" fill="#005498"/>
</g>
</g>
<defs>
<filter id="filter0_di_316_73" x="22.7192" y="-8.50003" width="163.488" height="224.994" filterUnits="userSpaceOnUse" color-interpolation-filters="sRGB">
<feFlood flood-opacity="0" result="BackgroundImageFix"/>
<feColorMatrix in="SourceAlpha" type="matrix" values="0 0 0 0 0 0 0 0 0 0 0 0 0 0 0 0 0 0 127 0" result="hardAlpha"/>
<feOffset dx="8" dy="8"/>
<feGaussianBlur stdDeviation="8"/>
<feComposite in2="hardAlpha" operator="out"/>
<feColorMatrix type="matrix" values="0 0 0 0 0 0 0 0 0 0 0 0 0 0 0 0 0 0 0.5 0"/>
<feBlend mode="normal" in2="BackgroundImageFix" result="effect1_dropShadow_316_73"/>
<feBlend mode="normal" in="SourceGraphic" in2="effect1_dropShadow_316_73" result="shape"/>
<feColorMatrix in="SourceAlpha" type="matrix" values="0 0 0 0 0 0 0 0 0 0 0 0 0 0 0 0 0 0 127 0" result="hardAlpha"/>
<feOffset dx="8" dy="8"/>
<feGaussianBlur stdDeviation="8"/>
<feComposite in2="hardAlpha" operator="arithmetic" k2="-1" k3="1"/>
<feColorMatrix type="matrix" values="0 0 0 0 0 0 0 0 0 0 0 0 0 0 0 0 0 0 0.5 0"/>
<feBlend mode="normal" in2="shape" result="effect2_innerShadow_316_73"/>
</filter>
<radialGradient id="paint0_radial_316_73" cx="0" cy="0" r="1" gradientUnits="userSpaceOnUse" gradientTransform="translate(96.3537 96) rotate(90) scale(96 65.3537)">
<stop stop-color="#003865"/>
<stop offset="1" stop-color="#003865" stop-opacity="0.9"/>
</radialGradient>
<clipPath id="clip0_316_73">
<rect width="192" height="192" fill="white"/>
</clipPath>
</defs>
</svg>
