<svg width="512" height="512" viewBox="0 0 512 512" fill="none" xmlns="http://www.w3.org/2000/svg">
<g clip-path="url(#clip0_316_53)">
<g filter="url(#filter0_di_316_53)">
<path fill-rule="evenodd" clip-rule="evenodd" d="M172.278 348.15C172.278 348.15 164.722 327.072 142.849 313.55C123.997 301.896 124.015 316.334 139.27 335.026C156.043 355.578 190.222 381.138 217.217 393.487C263.284 414.56 317.845 421.135 342.094 400.645C360.638 384.976 345.275 337.014 271.702 277.36C257.088 262.617 240.399 248.197 223.633 233.711L223.633 233.711L223.633 233.711C195.1 209.058 166.346 184.214 147.223 157.256C104.189 96.5906 102.284 45.1065 144.837 14.8817C217.449 -29.2409 312.823 37.1123 335.775 54.5926C338.801 56.3569 341.662 58.1486 344.388 59.9557C337.844 59.6594 330.749 59.5269 322.605 59.4235C311.102 51.7236 300.606 45.0968 290.889 39.4466L290.889 39.4464C267.776 26.0061 249.075 18.0914 231.736 14.4045C211.291 10.0571 192.74 11.5882 171.084 16.87C171.084 16.87 171.084 16.87 171.083 16.8701C220.959 14.6712 252.261 23.5114 317.435 67.3773C333.211 65.3007 345.083 65.482 356.249 68.4617C360.813 71.9664 365.049 75.4592 369.169 78.8557L369.169 78.8558L369.17 78.8562L369.17 78.8567C376.052 84.5303 382.608 89.9349 389.815 94.6758C399.392 100.975 404.34 109.297 407.712 117.884C411.021 126.311 416.198 128.812 420.803 131.036C424.865 132.999 428.483 134.746 429.983 140.155C431.791 146.679 429.139 151.637 424.319 153.776C418.955 160.654 410.385 163.82 392.203 165.608C402.317 162.078 408.531 158.821 412.863 154.103C409.205 153.237 405.903 152.259 402.829 151.094C393.868 154.429 386.076 156.465 375.101 158.847C383.437 154.733 388.621 150.635 393.237 146.408C392.084 145.699 390.947 144.943 389.815 144.132C382.657 139.004 371.521 134.615 355.216 128.225C350.144 126.237 344.358 124.187 339.032 122.441C341.337 125.769 343.931 128.859 346.588 132.022C351.615 138.009 356.864 144.258 360.784 152.882C361.565 154.601 362.322 156.269 363.056 157.886L363.149 158.09L363.15 158.093L363.15 158.093C371.696 176.923 377.018 188.65 379.873 191.06C383.539 193.241 387.373 195.111 390.869 196.817L390.87 196.817C396.049 199.344 400.488 201.51 402.542 203.787C392.469 200.479 387.559 199.043 381.862 198.219C387.676 204.878 392.676 207.909 402.542 212.934C402.145 212.779 401.46 212.601 400.552 212.365L400.551 212.364L400.549 212.364C394.856 210.883 380.418 207.13 373.51 192.651C372.496 190.526 371.44 188.263 370.333 185.888C362.69 169.502 352.569 147.805 336.524 129.418C337.335 142.511 338.964 150.65 341.166 161.646L341.166 161.647C341.707 164.348 342.282 167.22 342.888 170.38C336.693 161.937 330.262 136.886 326.552 118.719C324.531 118.209 323.009 117.908 322.207 117.884C319.034 120.645 315.083 157.03 334.138 183.902C334.138 183.902 339.56 183.462 342.887 182.709C346.396 181.915 352.83 180.323 352.83 180.323C352.83 180.323 348.057 183.106 345.274 185.095C343.201 186.575 340.501 189.072 340.501 189.072C340.501 189.072 347.78 189.765 352.432 189.47C357.783 189.13 365.954 187.083 365.954 187.083C365.954 187.083 355.619 193.888 348.057 195.037C336.436 196.803 323.933 194.428 319.026 187.083C314.131 179.757 312.462 172.276 309.834 160.503C308.003 152.296 305.706 142.004 301.527 128.225C296.998 113.29 288.505 98.2512 280.152 86.1175C263.941 74.4088 220.964 54.7596 193.355 52.6627C151.303 49.4689 146.597 69.9414 147.232 82.6518C148.813 114.305 167.104 139.516 193.355 164.017C225.477 193.998 260.339 224.59 282.228 243.799L282.241 243.811L282.298 243.86C284.772 246.032 287.08 248.057 289.199 249.919C289.996 250.619 290.834 251.354 291.711 252.122C319.733 276.672 387.021 335.622 377.885 397.862C372.456 434.847 343.739 458.37 316.243 463.084C274.615 470.22 238.915 459.176 198.9 439.801L202.502 426.496C264.94 457.118 311.073 458.709 337.32 437.233C285.035 455.296 221.703 429.488 196.442 414.349C187.569 468.838 134.287 504.012 82 512C122.415 484.59 142.468 462.035 158.426 415.61C128.661 393.828 105.123 365.887 99.1014 335.026C92.7381 302.415 111.681 278.634 136.486 282.133C198.526 290.882 203.696 367.239 203.696 367.239L172.278 348.15ZM346.136 86.0689C361.732 89.6273 367.054 94.9152 375.808 105.064C360.524 100.547 355.184 95.4799 346.136 86.0689Z" fill="url(#paint0_radial_316_53)" shape-rendering="crispEdges"/>
<path d="M142.849 313.55L142.586 313.976L142.849 313.55ZM172.278 348.15L171.808 348.319L171.867 348.485L172.019 348.577L172.278 348.15ZM139.27 335.026L139.657 334.71L139.27 335.026ZM217.217 393.487L217.425 393.032L217.217 393.487ZM342.094 400.645L341.771 400.263L342.094 400.645ZM271.702 277.36L271.347 277.712L271.366 277.731L271.387 277.749L271.702 277.36ZM223.633 233.711L223.304 234.087L223.307 234.089L223.633 233.711ZM223.633 233.711L223.962 233.335L223.956 233.329L223.95 233.324L223.633 233.711ZM223.633 233.711L223.306 234.089L223.316 234.098L223.633 233.711ZM147.223 157.256L146.816 157.546L147.223 157.256ZM144.837 14.8817L144.578 14.4544L144.562 14.4637L144.548 14.474L144.837 14.8817ZM335.775 54.5926L335.472 54.9903L335.496 55.009L335.523 55.0245L335.775 54.5926ZM344.388 59.9557L344.365 60.4552L346.169 60.5369L344.664 59.539L344.388 59.9557ZM322.605 59.4235L322.327 59.839L322.45 59.9215L322.599 59.9234L322.605 59.4235ZM290.889 39.4466L290.565 39.0656L290.027 39.5234L290.638 39.8788L290.889 39.4466ZM290.889 39.4464L291.213 39.8274L291.752 39.3696L291.141 39.0142L290.889 39.4464ZM231.736 14.4045L231.632 14.8936L231.736 14.4045ZM171.084 16.87L171.195 17.3576L171.202 17.3558L171.084 16.87ZM171.083 16.8701L170.973 16.3825L171.106 17.3696L171.083 16.8701ZM317.435 67.3773L317.156 67.7921L317.313 67.8977L317.5 67.873L317.435 67.3773ZM356.249 68.4617L356.554 68.0651L356.474 68.0043L356.378 67.9786L356.249 68.4617ZM369.169 78.8557L368.851 79.2415L368.86 79.2488L368.869 79.2557L369.169 78.8557ZM369.169 78.8558L369.493 78.4748L369.482 78.465L369.469 78.4558L369.169 78.8558ZM369.17 78.8562L369.499 78.4799L369.494 78.4752L369.17 78.8562ZM369.17 78.8567L368.841 79.233L368.847 79.2378L368.852 79.2425L369.17 78.8567ZM389.815 94.6758L390.09 94.2581L389.815 94.6758ZM407.712 117.884L408.177 117.702L407.712 117.884ZM420.803 131.036L420.586 131.487L420.803 131.036ZM429.983 140.155L429.501 140.289L429.983 140.155ZM424.319 153.776L424.117 153.319L424.002 153.369L423.925 153.468L424.319 153.776ZM392.203 165.608L392.038 165.136L392.251 166.105L392.203 165.608ZM412.863 154.103L413.232 154.442L413.809 153.814L412.979 153.617L412.863 154.103ZM402.829 151.094L403.006 150.626L402.831 150.56L402.655 150.625L402.829 151.094ZM375.101 158.847L374.88 158.399L375.207 159.336L375.101 158.847ZM393.237 146.408L393.575 146.777L394.064 146.329L393.499 145.982L393.237 146.408ZM389.815 144.132L389.524 144.539L389.815 144.132ZM355.216 128.225L355.398 127.759L355.216 128.225ZM339.032 122.441L339.188 121.966L337.774 121.503L338.621 122.726L339.032 122.441ZM346.588 132.022L346.971 131.7L346.588 132.022ZM360.784 152.882L360.329 153.089V153.089L360.784 152.882ZM363.056 157.886L362.601 158.093V158.093L363.056 157.886ZM363.149 158.09L363.605 157.886L363.604 157.883L363.149 158.09ZM363.15 158.093L362.694 158.297L362.704 158.319L362.716 158.341L363.15 158.093ZM363.15 158.093L363.605 157.886L363.596 157.865L363.584 157.845L363.15 158.093ZM379.873 191.06L379.551 191.442L379.582 191.469L379.617 191.49L379.873 191.06ZM390.869 196.817L391.093 196.37L391.088 196.368L390.869 196.817ZM390.87 196.817L390.646 197.265L390.65 197.267L390.87 196.817ZM402.542 203.787L402.386 204.262L404.173 204.849L402.913 203.452L402.542 203.787ZM381.862 198.219L381.933 197.724L380.597 197.531L381.485 198.548L381.862 198.219ZM402.542 212.934L402.36 213.399L402.769 212.488L402.542 212.934ZM400.552 212.365L400.678 211.881L400.673 211.879L400.552 212.365ZM400.549 212.364L400.424 212.848L400.428 212.849L400.549 212.364ZM373.51 192.651L373.059 192.867L373.51 192.651ZM370.333 185.888L370.786 185.677V185.677L370.333 185.888ZM336.524 129.418L336.901 129.089L335.935 127.981L336.025 129.449L336.524 129.418ZM341.166 161.646L340.676 161.745L340.676 161.746L341.166 161.646ZM341.166 161.647L341.656 161.549L341.656 161.548L341.166 161.647ZM342.888 170.38L342.484 170.676L343.379 170.286L342.888 170.38ZM326.552 118.719L327.042 118.619L326.979 118.311L326.674 118.234L326.552 118.719ZM322.207 117.884L322.222 117.385L322.027 117.379L321.879 117.507L322.207 117.884ZM334.138 183.902L333.73 184.191L333.895 184.423L334.179 184.4L334.138 183.902ZM342.887 182.709L342.998 183.196L342.887 182.709ZM352.83 180.323L353.082 180.754L352.71 179.837L352.83 180.323ZM345.274 185.095L345.564 185.502V185.502L345.274 185.095ZM340.501 189.072L340.162 188.705L339.341 189.464L340.454 189.57L340.501 189.072ZM352.432 189.47L352.464 189.969L352.432 189.47ZM365.954 187.083L366.229 187.501L365.832 186.598L365.954 187.083ZM348.057 195.037L348.133 195.532L348.057 195.037ZM319.026 187.083L319.442 186.806L319.026 187.083ZM309.834 160.503L309.346 160.612L309.834 160.503ZM301.527 128.225L302.006 128.079L301.527 128.225ZM280.152 86.1175L280.564 85.834L280.515 85.7628L280.445 85.7122L280.152 86.1175ZM193.355 52.6627L193.393 52.1641L193.355 52.6627ZM147.232 82.6518L147.731 82.6268L147.232 82.6518ZM193.355 164.017L193.014 164.383L193.355 164.017ZM282.228 243.799L281.898 244.174L281.898 244.175L282.228 243.799ZM282.241 243.811L282.571 243.435L282.571 243.434L282.241 243.811ZM282.298 243.86L281.968 244.236H281.968L282.298 243.86ZM289.199 249.919L288.869 250.295L289.199 249.919ZM291.711 252.122L291.381 252.498L291.711 252.122ZM377.885 397.862L377.39 397.789L377.885 397.862ZM316.243 463.084L316.158 462.591L316.243 463.084ZM198.9 439.801L198.417 439.671L198.309 440.071L198.682 440.251L198.9 439.801ZM202.502 426.496L202.722 426.047L202.178 425.78L202.019 426.365L202.502 426.496ZM337.32 437.233L337.637 437.62L337.157 436.761L337.32 437.233ZM196.442 414.349L196.699 413.92L196.067 413.541L195.948 414.269L196.442 414.349ZM82 512L81.7194 511.586L82.0755 512.494L82 512ZM158.426 415.61L158.899 415.772L159.019 415.424L158.722 415.206L158.426 415.61ZM99.1014 335.026L99.5922 334.93L99.1014 335.026ZM136.486 282.133L136.416 282.628L136.486 282.133ZM203.696 367.239L203.437 367.666L204.26 368.167L204.195 367.205L203.696 367.239ZM346.136 86.0689L346.247 85.5814L344.616 85.2092L345.776 86.4154L346.136 86.0689ZM375.808 105.064L375.666 105.544L377.298 106.026L376.187 104.738L375.808 105.064ZM142.586 313.976C153.446 320.689 160.755 329.28 165.35 336.197C167.647 339.655 169.264 342.692 170.305 344.862C170.826 345.946 171.203 346.814 171.449 347.409C171.572 347.706 171.662 347.935 171.722 348.089C171.751 348.166 171.773 348.225 171.787 348.263C171.794 348.282 171.8 348.297 171.803 348.306C171.805 348.311 171.806 348.314 171.807 348.316C171.807 348.317 171.807 348.318 171.808 348.318C171.808 348.318 171.808 348.319 171.808 348.319C171.808 348.319 171.808 348.319 172.278 348.15C172.749 347.981 172.749 347.981 172.749 347.98C172.749 347.98 172.749 347.98 172.748 347.979C172.748 347.979 172.748 347.977 172.747 347.976C172.746 347.973 172.745 347.969 172.743 347.963C172.739 347.952 172.733 347.936 172.725 347.915C172.709 347.873 172.686 347.811 172.655 347.73C172.593 347.569 172.499 347.332 172.373 347.027C172.12 346.416 171.736 345.531 171.207 344.429C170.148 342.224 168.509 339.146 166.183 335.644C161.531 328.642 154.125 319.933 143.112 313.125L142.586 313.976ZM139.657 334.71C135.862 330.059 133.024 325.685 131.192 321.927C129.351 318.151 128.559 315.061 128.767 312.958C128.87 311.918 129.213 311.161 129.75 310.662C130.286 310.164 131.077 309.864 132.193 309.861C134.457 309.855 137.889 311.072 142.586 313.976L143.112 313.125C138.383 310.202 134.748 308.854 132.19 308.861C130.895 308.865 129.836 309.216 129.069 309.929C128.304 310.641 127.891 311.654 127.772 312.859C127.535 315.245 128.429 318.541 130.293 322.365C132.166 326.207 135.051 330.647 138.882 335.342L139.657 334.71ZM217.425 393.032C190.49 380.711 156.375 355.195 139.657 334.71L138.882 335.342C155.71 355.961 189.954 381.565 217.009 393.942L217.425 393.032ZM341.771 400.263C329.798 410.38 310.26 413.867 287.875 412.153C265.513 410.442 240.413 403.548 217.425 393.032L217.009 393.942C240.088 404.499 265.302 411.429 287.799 413.15C310.274 414.87 330.141 411.4 342.416 401.027L341.771 400.263ZM271.387 277.749C308.143 307.551 330.319 334.402 340.995 355.721C346.333 366.381 348.782 375.631 348.765 383.159C348.747 390.678 346.272 396.461 341.771 400.263L342.416 401.027C347.188 396.996 349.746 390.907 349.765 383.162C349.783 375.426 347.27 366.019 341.889 355.273C331.126 333.781 308.834 306.824 272.017 276.972L271.387 277.749ZM223.307 234.089C240.075 248.578 256.749 262.985 271.347 277.712L272.057 277.008C257.427 262.249 240.723 247.816 223.96 233.333L223.307 234.089ZM223.304 234.087L223.304 234.087L223.963 233.335L223.962 233.335L223.304 234.087ZM223.316 234.098L223.316 234.098L223.95 233.324L223.949 233.324L223.316 234.098ZM146.816 157.546C165.98 184.562 194.786 209.447 223.306 234.089L223.96 233.332C195.415 208.669 166.712 183.865 147.631 156.967L146.816 157.546ZM144.548 14.474C123.141 29.6791 112.895 50.2608 113.435 74.6647C113.974 99.0363 125.268 127.171 146.816 157.546L147.631 156.967C126.144 126.676 114.968 98.7357 114.435 74.6426C113.902 50.5818 123.98 30.3091 145.127 15.2893L144.548 14.474ZM336.078 54.1948C324.585 45.4422 294.958 24.4501 259.102 11.1672C223.255 -2.1123 181.075 -7.72379 144.578 14.4544L145.097 15.3089C181.21 -6.6355 223.024 -1.13165 258.755 12.1049C294.476 25.338 324.012 46.2627 335.472 54.9903L336.078 54.1948ZM344.664 59.539C341.93 57.7269 339.061 55.9301 336.027 54.1606L335.523 55.0245C338.54 56.7837 341.393 58.5703 344.111 60.3725L344.664 59.539ZM322.599 59.9234C330.742 60.0268 337.83 60.1593 344.365 60.4552L344.41 59.4563C337.858 59.1595 330.756 59.0269 322.612 58.9235L322.599 59.9234ZM290.638 39.8788C300.343 45.5225 310.831 52.1434 322.327 59.839L322.883 59.0079C311.374 51.3039 300.868 44.6712 291.14 39.0143L290.638 39.8788ZM291.213 39.8275L291.213 39.8274L290.565 39.0655L290.565 39.0656L291.213 39.8275ZM291.141 39.0142C268.002 25.5593 249.25 17.6174 231.84 13.9155L231.632 14.8936C248.9 18.5654 267.55 26.4529 290.638 39.8787L291.141 39.0142ZM231.84 13.9155C211.299 9.54772 192.669 11.0908 170.965 16.3842L171.202 17.3558C192.811 12.0855 211.282 10.5664 231.632 14.8936L231.84 13.9155ZM171.194 17.3576C171.201 17.3561 171.207 17.3547 171.21 17.3537C171.212 17.3533 171.213 17.3529 171.214 17.3527C171.215 17.3525 171.215 17.3524 171.215 17.3524C171.215 17.3523 171.216 17.3523 171.216 17.3523C171.216 17.3523 171.216 17.3523 171.216 17.3523C171.216 17.3523 171.216 17.3523 171.216 17.3523C171.216 17.3523 171.216 17.3523 171.216 17.3523C171.216 17.3522 171.213 17.3529 171.21 17.3537C171.207 17.3546 171.201 17.356 171.195 17.3576L170.973 16.3824C170.966 16.384 170.961 16.3854 170.957 16.3863C170.955 16.3868 170.954 16.3872 170.953 16.3874C170.953 16.3875 170.952 16.3876 170.952 16.3877C170.952 16.3877 170.952 16.3877 170.952 16.3878C170.952 16.3878 170.952 16.3878 170.952 16.3878C170.952 16.3878 170.952 16.3878 170.952 16.3878C170.952 16.3878 170.952 16.3878 170.952 16.3878C170.951 16.3879 170.954 16.3872 170.957 16.3863C170.96 16.3854 170.966 16.384 170.973 16.3825L171.194 17.3576ZM317.714 66.9625C285.114 45.0207 260.951 31.8149 238.681 24.3752C216.398 16.9315 196.039 15.2694 171.061 16.3705L171.106 17.3696C196.004 16.2719 216.233 17.9305 238.364 25.3236C260.507 32.7208 284.582 45.8679 317.156 67.7921L317.714 66.9625ZM356.378 67.9786C345.126 64.9757 333.181 64.8003 317.37 66.8815L317.5 67.873C333.241 65.8011 345.041 65.9883 356.12 68.9448L356.378 67.9786ZM369.487 78.4699C365.368 75.0741 361.125 71.5759 356.554 68.0651L355.945 68.8583C360.5 72.3569 364.73 75.8443 368.851 79.2415L369.487 78.4699ZM369.469 78.4558L369.469 78.4557L368.869 79.2557L368.869 79.2558L369.469 78.4558ZM369.494 78.4752L369.493 78.4748L368.845 79.2368L368.846 79.2372L369.494 78.4752ZM369.5 78.4804L369.499 78.4799L368.841 79.2325L368.841 79.233L369.5 78.4804ZM390.09 94.2581C382.909 89.5344 376.374 84.1474 369.488 78.4709L368.852 79.2425C375.731 84.9132 382.307 90.3353 389.541 95.0935L390.09 94.2581ZM408.177 117.702C404.782 109.057 399.782 100.633 390.09 94.2581L389.541 95.0935C399.002 101.317 403.897 109.538 407.246 118.067L408.177 117.702ZM421.021 130.586C418.713 129.471 416.324 128.315 414.097 126.406C411.878 124.505 409.803 121.842 408.177 117.702L407.246 118.067C408.929 122.353 411.097 125.153 413.446 127.166C415.785 129.17 418.288 130.377 420.586 131.487L421.021 130.586ZM430.464 140.022C428.9 134.377 425.079 132.547 421.021 130.586L420.586 131.487C424.652 133.451 428.067 135.116 429.501 140.289L430.464 140.022ZM424.522 154.233C427.034 153.118 428.998 151.259 430.093 148.814C431.187 146.37 431.395 143.378 430.464 140.022L429.501 140.289C430.379 143.457 430.165 146.206 429.18 148.406C428.196 150.605 426.424 152.295 424.117 153.319L424.522 154.233ZM392.251 166.105C410.444 164.317 419.21 161.14 424.714 154.083L423.925 153.468C418.7 160.168 410.327 163.324 392.154 165.11L392.251 166.105ZM412.495 153.765C408.249 158.388 402.134 161.613 392.038 165.136L392.367 166.08C402.5 162.544 408.812 159.253 413.232 154.442L412.495 153.765ZM402.652 151.561C405.75 152.735 409.074 153.72 412.748 154.59L412.979 153.617C409.337 152.754 406.056 151.782 403.006 150.626L402.652 151.561ZM375.207 159.336C386.193 156.951 394.011 154.909 403.004 151.563L402.655 150.625C393.725 153.949 385.958 155.979 374.995 158.358L375.207 159.336ZM392.9 146.039C388.309 150.242 383.164 154.31 374.88 158.399L375.323 159.295C383.711 155.156 388.932 151.027 393.575 146.777L392.9 146.039ZM389.524 144.539C390.665 145.356 391.812 146.119 392.976 146.834L393.499 145.982C392.356 145.28 391.229 144.53 390.107 143.726L389.524 144.539ZM355.034 128.69C371.366 135.091 382.429 139.455 389.524 144.539L390.107 143.726C382.885 138.552 371.677 134.139 355.398 127.759L355.034 128.69ZM338.877 122.917C344.195 124.659 349.972 126.706 355.034 128.69L355.398 127.759C350.316 125.767 344.521 123.714 339.188 121.966L338.877 122.917ZM346.971 131.7C344.312 128.534 341.732 125.462 339.443 122.157L338.621 122.726C340.941 126.076 343.551 129.183 346.205 132.343L346.971 131.7ZM361.239 152.675C357.288 143.982 351.996 137.684 346.971 131.7L346.205 132.343C351.235 138.333 356.441 144.535 360.329 153.089L361.239 152.675ZM363.511 157.679C362.778 156.063 362.02 154.394 361.239 152.675L360.329 153.089C361.11 154.808 361.867 156.476 362.601 158.093L363.511 157.679ZM363.604 157.883L363.511 157.679L362.601 158.093L362.693 158.297L363.604 157.883ZM363.607 157.889L363.605 157.886L362.692 158.294L362.694 158.297L363.607 157.889ZM363.584 157.845L363.584 157.845L362.716 158.341L362.716 158.341L363.584 157.845ZM380.196 190.678C379.552 190.135 378.72 189.015 377.687 187.284C376.663 185.568 375.47 183.302 374.094 180.513C371.343 174.935 367.88 167.305 363.605 157.886L362.695 158.3C366.966 167.712 370.437 175.359 373.197 180.955C374.577 183.753 375.784 186.047 376.828 187.796C377.863 189.53 378.767 190.781 379.551 191.442L380.196 190.678ZM391.088 196.368C387.589 194.661 383.774 192.799 380.129 190.631L379.617 191.49C383.304 193.683 387.156 195.562 390.65 197.267L391.088 196.368ZM391.093 196.37L391.093 196.37L390.646 197.264L390.646 197.265L391.093 196.37ZM402.913 203.452C401.83 202.251 400.147 201.108 398.125 199.961C396.094 198.81 393.674 197.63 391.089 196.368L390.65 197.267C393.244 198.532 395.634 199.698 397.631 200.831C399.636 201.968 401.2 203.046 402.171 204.122L402.913 203.452ZM381.79 198.714C387.439 199.531 392.312 200.954 402.386 204.262L402.698 203.312C392.626 200.004 387.678 198.555 381.933 197.724L381.79 198.714ZM402.769 212.488C392.92 207.472 387.989 204.476 382.238 197.89L381.485 198.548C387.363 205.28 392.432 208.346 402.315 213.379L402.769 212.488ZM400.426 212.848C401.351 213.089 401.998 213.258 402.36 213.399L402.724 212.468C402.292 212.299 401.569 212.112 400.678 211.881L400.426 212.848ZM400.429 212.849L400.431 212.85L400.673 211.879L400.672 211.879L400.429 212.849ZM400.428 212.849L400.429 212.849L400.672 211.879L400.671 211.879L400.428 212.849ZM373.059 192.867C380.075 207.572 394.734 211.369 400.424 212.848L400.675 211.88C394.977 210.398 380.761 206.687 373.961 192.436L373.059 192.867ZM369.88 186.099C370.987 188.474 372.044 190.739 373.059 192.867L373.961 192.436C372.948 190.313 371.894 188.052 370.786 185.677L369.88 186.099ZM336.148 129.746C352.139 148.073 362.234 169.707 369.88 186.099L370.786 185.677C363.146 169.297 352.999 147.537 336.901 129.089L336.148 129.746ZM341.656 161.548C339.455 150.555 337.832 142.444 337.024 129.387L336.025 129.449C336.838 142.578 338.473 150.745 340.676 161.745L341.656 161.548ZM341.656 161.548L341.656 161.547L340.676 161.746L340.676 161.747L341.656 161.548ZM343.379 170.286C342.772 167.124 342.197 164.249 341.656 161.549L340.676 161.746C341.216 164.446 341.791 167.316 342.397 170.474L343.379 170.286ZM326.062 118.819C327.919 127.912 330.457 138.731 333.309 148.338C336.152 157.919 339.329 166.375 342.484 170.676L343.291 170.085C340.252 165.943 337.116 157.651 334.267 148.054C331.427 138.483 328.895 127.693 327.042 118.619L326.062 118.819ZM322.193 118.384C322.931 118.406 324.401 118.692 326.429 119.204L326.674 118.234C324.661 117.726 323.087 117.41 322.222 117.385L322.193 118.384ZM334.546 183.613C325.087 170.274 321.329 154.556 320.336 141.812C319.839 135.443 320.035 129.83 320.549 125.646C320.807 123.553 321.143 121.828 321.508 120.549C321.691 119.909 321.878 119.39 322.062 118.997C322.251 118.593 322.416 118.365 322.535 118.262L321.879 117.507C321.602 117.749 321.364 118.128 321.156 118.574C320.943 119.03 320.738 119.603 320.547 120.274C320.163 121.618 319.818 123.398 319.557 125.524C319.034 129.779 318.838 135.459 319.339 141.89C320.341 154.747 324.134 170.658 333.73 184.191L334.546 183.613ZM342.777 182.221C341.141 182.591 338.976 182.887 337.208 183.091C336.326 183.193 335.548 183.271 334.99 183.324C334.711 183.35 334.488 183.37 334.334 183.383C334.257 183.39 334.198 183.395 334.158 183.398C334.138 183.4 334.123 183.401 334.113 183.402C334.108 183.403 334.104 183.403 334.101 183.403C334.1 183.403 334.099 183.403 334.099 183.403C334.098 183.403 334.098 183.403 334.098 183.403C334.098 183.403 334.098 183.403 334.098 183.403C334.098 183.403 334.098 183.403 334.138 183.902C334.179 184.4 334.179 184.4 334.179 184.4C334.179 184.4 334.179 184.4 334.179 184.4C334.179 184.4 334.179 184.4 334.18 184.4C334.18 184.4 334.182 184.4 334.183 184.4C334.186 184.4 334.19 184.399 334.195 184.399C334.206 184.398 334.221 184.397 334.242 184.395C334.283 184.391 334.343 184.386 334.421 184.38C334.577 184.366 334.803 184.346 335.084 184.319C335.647 184.266 336.432 184.187 337.322 184.084C339.097 183.88 341.306 183.579 342.998 183.196L342.777 182.221ZM352.83 180.323C352.71 179.837 352.71 179.837 352.71 179.837C352.71 179.837 352.71 179.837 352.709 179.837C352.709 179.837 352.709 179.837 352.709 179.837C352.708 179.838 352.707 179.838 352.705 179.838C352.702 179.839 352.697 179.84 352.691 179.842C352.679 179.845 352.661 179.849 352.637 179.855C352.589 179.867 352.518 179.885 352.427 179.907C352.244 179.952 351.979 180.017 351.65 180.098C350.993 180.26 350.079 180.483 349.056 180.732C347.009 181.229 344.527 181.825 342.777 182.221L342.998 183.196C344.756 182.798 347.245 182.201 349.292 181.704C350.316 181.455 351.231 181.231 351.889 181.069C352.218 180.988 352.483 180.923 352.666 180.878C352.758 180.855 352.829 180.838 352.877 180.826C352.901 180.82 352.919 180.816 352.931 180.813C352.937 180.811 352.942 180.81 352.945 180.809C352.947 180.809 352.948 180.808 352.949 180.808C352.949 180.808 352.949 180.808 352.95 180.808C352.95 180.808 352.95 180.808 352.95 180.808C352.95 180.808 352.95 180.808 352.83 180.323ZM345.564 185.502C346.941 184.518 348.817 183.333 350.357 182.389C351.125 181.918 351.807 181.51 352.296 181.218C352.541 181.073 352.738 180.957 352.873 180.877C352.941 180.837 352.993 180.806 353.028 180.786C353.046 180.775 353.059 180.768 353.068 180.762C353.073 180.76 353.076 180.758 353.078 180.756C353.08 180.756 353.08 180.755 353.081 180.755C353.081 180.755 353.081 180.755 353.082 180.755C353.082 180.755 353.082 180.754 353.082 180.754C353.082 180.754 353.082 180.754 352.83 180.323C352.578 179.891 352.578 179.891 352.578 179.891C352.578 179.891 352.578 179.891 352.578 179.891C352.577 179.891 352.577 179.891 352.577 179.891C352.576 179.892 352.575 179.892 352.574 179.893C352.572 179.894 352.568 179.896 352.564 179.899C352.554 179.904 352.541 179.912 352.523 179.923C352.487 179.944 352.434 179.975 352.366 180.015C352.229 180.096 352.031 180.212 351.785 180.359C351.293 180.652 350.607 181.063 349.834 181.537C348.292 182.482 346.39 183.683 344.983 184.688L345.564 185.502ZM340.501 189.072C340.841 189.439 340.841 189.439 340.841 189.439C340.841 189.439 340.841 189.439 340.841 189.439C340.841 189.439 340.841 189.439 340.841 189.439C340.841 189.438 340.842 189.438 340.842 189.437C340.844 189.436 340.846 189.435 340.848 189.432C340.853 189.428 340.861 189.421 340.871 189.411C340.89 189.393 340.92 189.366 340.959 189.331C341.036 189.26 341.148 189.158 341.29 189.03C341.574 188.775 341.974 188.419 342.438 188.016C343.368 187.21 344.547 186.228 345.564 185.502L344.983 184.688C343.927 185.442 342.72 186.449 341.783 187.261C341.313 187.668 340.908 188.028 340.621 188.287C340.477 188.417 340.363 188.521 340.284 188.593C340.245 188.629 340.214 188.656 340.194 188.675C340.183 188.685 340.175 188.692 340.17 188.697C340.167 188.7 340.165 188.701 340.164 188.703C340.163 188.703 340.163 188.704 340.162 188.704C340.162 188.704 340.162 188.704 340.162 188.705C340.162 188.705 340.162 188.705 340.162 188.705C340.162 188.705 340.162 188.705 340.501 189.072ZM352.4 188.971C350.106 189.116 347.148 189.018 344.75 188.882C343.554 188.814 342.503 188.737 341.751 188.677C341.375 188.647 341.074 188.621 340.867 188.603C340.764 188.594 340.684 188.587 340.63 188.582C340.603 188.579 340.583 188.577 340.569 188.576C340.562 188.575 340.557 188.575 340.554 188.575C340.552 188.574 340.551 188.574 340.55 188.574C340.549 188.574 340.549 188.574 340.549 188.574C340.549 188.574 340.549 188.574 340.549 188.574C340.549 188.574 340.549 188.574 340.501 189.072C340.454 189.57 340.454 189.57 340.454 189.57C340.454 189.57 340.454 189.57 340.454 189.57C340.455 189.57 340.455 189.57 340.455 189.57C340.456 189.57 340.458 189.57 340.46 189.57C340.463 189.57 340.469 189.571 340.476 189.572C340.49 189.573 340.511 189.575 340.538 189.577C340.593 189.583 340.674 189.59 340.779 189.599C340.988 189.618 341.292 189.644 341.671 189.674C342.429 189.734 343.488 189.812 344.694 189.881C347.098 190.017 350.106 190.118 352.464 189.969L352.4 188.971ZM365.954 187.083C365.832 186.598 365.832 186.598 365.832 186.598C365.832 186.598 365.832 186.598 365.832 186.598C365.832 186.598 365.831 186.599 365.831 186.599C365.83 186.599 365.829 186.599 365.827 186.6C365.823 186.601 365.817 186.602 365.81 186.604C365.794 186.608 365.771 186.613 365.741 186.621C365.681 186.636 365.591 186.658 365.475 186.686C365.242 186.742 364.904 186.823 364.48 186.921C363.634 187.118 362.45 187.383 361.1 187.659C358.392 188.212 355.04 188.803 352.4 188.971L352.464 189.969C355.176 189.796 358.584 189.194 361.3 188.639C362.661 188.361 363.854 188.093 364.707 187.895C365.133 187.797 365.475 187.715 365.71 187.658C365.828 187.629 365.919 187.607 365.98 187.592C366.011 187.584 366.035 187.578 366.051 187.574C366.059 187.572 366.065 187.571 366.069 187.57C366.071 187.569 366.072 187.569 366.074 187.569C366.074 187.569 366.074 187.569 366.075 187.568C366.075 187.568 366.075 187.568 366.075 187.568C366.075 187.568 366.075 187.568 365.954 187.083ZM348.133 195.532C352 194.944 356.536 192.921 360.073 191.073C361.848 190.144 363.386 189.253 364.479 188.593C365.026 188.263 365.462 187.99 365.762 187.8C365.912 187.705 366.028 187.631 366.107 187.58C366.147 187.555 366.177 187.535 366.197 187.522C366.207 187.515 366.215 187.51 366.22 187.506C366.223 187.505 366.225 187.503 366.226 187.502C366.227 187.502 366.228 187.502 366.228 187.501C366.228 187.501 366.228 187.501 366.228 187.501C366.229 187.501 366.229 187.501 365.954 187.083C365.679 186.666 365.679 186.666 365.679 186.666C365.679 186.666 365.679 186.666 365.678 186.666C365.678 186.666 365.678 186.666 365.677 186.667C365.676 186.667 365.674 186.669 365.672 186.67C365.667 186.673 365.66 186.678 365.651 186.684C365.631 186.697 365.603 186.715 365.564 186.74C365.488 186.789 365.375 186.862 365.227 186.956C364.933 187.142 364.503 187.411 363.962 187.736C362.882 188.388 361.363 189.27 359.609 190.186C356.088 192.027 351.676 193.982 347.982 194.543L348.133 195.532ZM318.61 187.361C321.159 191.175 325.645 193.654 330.903 194.962C336.169 196.272 342.267 196.423 348.133 195.532L347.982 194.543C342.226 195.418 336.262 195.264 331.144 193.992C326.019 192.717 321.8 190.336 319.442 186.806L318.61 187.361ZM309.346 160.612C311.969 172.366 313.654 179.944 318.61 187.361L319.442 186.806C314.608 179.571 312.954 172.186 310.322 160.394L309.346 160.612ZM301.049 128.37C305.222 142.13 307.516 152.408 309.346 160.612L310.322 160.394C308.491 152.185 306.19 141.878 302.006 128.079L301.049 128.37ZM279.741 86.401C288.078 98.5126 296.54 113.503 301.049 128.37L302.006 128.079C297.455 113.076 288.933 97.9899 280.564 85.834L279.741 86.401ZM193.317 53.1613C207.044 54.2038 224.633 59.6171 240.838 66.2484C257.041 72.8786 271.799 80.7006 279.86 86.5228L280.445 85.7122C272.295 79.8257 257.458 71.9687 241.217 65.3229C224.979 58.6782 207.275 53.2185 193.393 52.1641L193.317 53.1613ZM147.731 82.6268C147.417 76.3322 148.431 68.21 154.638 62.048C160.844 55.8868 172.359 51.5695 193.317 53.1613L193.393 52.1641C172.3 50.5621 160.435 54.8842 153.934 61.3383C147.433 67.7917 146.412 76.2611 146.732 82.6767L147.731 82.6268ZM193.696 163.652C167.475 139.179 149.303 114.083 147.731 82.6268L146.732 82.6767C148.324 114.528 166.733 139.854 193.014 164.383L193.696 163.652ZM282.557 243.423C260.668 224.214 225.812 193.626 193.696 163.652L193.014 164.383C225.142 194.369 260.009 224.967 281.898 244.174L282.557 243.423ZM282.571 243.434L282.557 243.423L281.898 244.175L281.912 244.187L282.571 243.434ZM282.628 243.485L282.571 243.435L281.911 244.186L281.968 244.236L282.628 243.485ZM289.529 249.544C287.41 247.681 285.102 245.656 282.628 243.485L281.968 244.236C284.443 246.408 286.751 248.433 288.869 250.295L289.529 249.544ZM292.04 251.746C291.164 250.977 290.325 250.243 289.529 249.544L288.869 250.295C289.666 250.995 290.505 251.73 291.381 252.498L292.04 251.746ZM378.38 397.934C382.977 366.616 368.343 336.181 349.132 310.558C329.914 284.925 306.049 264.019 292.04 251.746L291.381 252.498C305.395 264.775 329.185 285.619 348.332 311.158C367.488 336.708 381.929 366.868 377.39 397.789L378.38 397.934ZM316.327 463.576C344.019 458.829 372.917 435.151 378.38 397.934L377.39 397.789C371.995 434.544 343.458 457.911 316.158 462.591L316.327 463.576ZM198.682 440.251C238.734 459.644 274.548 470.738 316.327 463.576L316.158 462.591C274.681 469.701 239.096 458.708 199.118 439.351L198.682 440.251ZM202.019 426.365L198.417 439.671L199.382 439.932L202.985 426.626L202.019 426.365ZM337.004 436.846C311.003 458.12 265.132 456.655 202.722 426.047L202.282 426.944C264.748 457.581 311.142 459.298 337.637 437.62L337.004 436.846ZM196.185 414.778C208.856 422.372 231.052 432.629 256.631 438.728C282.207 444.826 311.217 446.78 337.484 437.706L337.157 436.761C311.138 445.749 282.34 443.83 256.863 437.755C231.39 431.681 209.289 421.465 196.699 413.92L196.185 414.778ZM82.0755 512.494C134.48 504.488 188.015 469.215 196.935 414.43L195.948 414.269C187.124 468.461 134.094 503.535 81.9245 511.506L82.0755 512.494ZM157.953 415.447C149.988 438.62 141.01 455.809 128.996 470.62C116.98 485.435 101.908 497.894 81.7194 511.586L82.2806 512.414C102.508 498.696 117.669 486.172 129.773 471.25C141.879 456.325 150.907 439.024 158.899 415.772L157.953 415.447ZM98.6107 335.122C104.667 366.16 128.319 394.198 158.131 416.013L158.722 415.206C129.003 393.459 105.579 365.614 99.5922 334.93L98.6107 335.122ZM136.556 281.637C123.962 279.861 112.847 285.017 105.703 294.742C98.5646 304.459 95.4073 318.705 98.6107 335.122L99.5922 334.93C96.4322 318.736 99.5649 304.786 106.509 295.334C113.446 285.891 124.205 280.906 136.416 282.628L136.556 281.637ZM203.696 367.239C204.195 367.205 204.195 367.205 204.195 367.204C204.195 367.203 204.195 367.202 204.195 367.201C204.195 367.199 204.194 367.195 204.194 367.19C204.193 367.18 204.192 367.166 204.191 367.147C204.188 367.109 204.184 367.053 204.178 366.98C204.166 366.833 204.147 366.616 204.121 366.332C204.067 365.766 203.981 364.937 203.849 363.879C203.585 361.764 203.139 358.735 202.409 355.074C200.95 347.754 198.356 337.897 193.812 327.762C184.726 307.493 167.811 286.045 136.556 281.637L136.416 282.628C167.201 286.969 183.891 308.074 192.9 328.171C197.404 338.219 199.98 347.999 201.429 355.269C202.153 358.904 202.595 361.908 202.857 364.003C202.987 365.05 203.073 365.87 203.125 366.427C203.151 366.705 203.17 366.918 203.181 367.06C203.187 367.131 203.191 367.185 203.194 367.221C203.195 367.239 203.196 367.252 203.196 367.261C203.197 367.265 203.197 367.268 203.197 367.27C203.197 367.271 203.197 367.272 203.197 367.272C203.197 367.273 203.197 367.273 203.696 367.239ZM172.019 348.577L203.437 367.666L203.956 366.812L172.538 347.723L172.019 348.577ZM346.025 86.5563C353.78 88.3258 358.945 90.5169 363.253 93.5059C367.569 96.501 371.051 100.315 375.429 105.391L376.187 104.738C371.811 99.6644 368.255 95.76 363.823 92.6843C359.382 89.6024 354.088 87.3703 346.247 85.5814L346.025 86.5563ZM375.95 104.585C368.343 102.337 363.239 99.9601 358.917 96.9897C354.588 94.0144 351.023 90.43 346.496 85.7223L345.776 86.4154C350.298 91.1188 353.927 94.7735 358.351 97.8138C362.782 100.859 367.989 103.275 375.666 105.544L375.95 104.585Z" fill="#005498"/>
</g>
</g>
<defs>
<filter id="filter0_di_316_53" x="73.7192" y="-8.50003" width="381.334" height="544.994" filterUnits="userSpaceOnUse" color-interpolation-filters="sRGB">
<feFlood flood-opacity="0" result="BackgroundImageFix"/>
<feColorMatrix in="SourceAlpha" type="matrix" values="0 0 0 0 0 0 0 0 0 0 0 0 0 0 0 0 0 0 127 0" result="hardAlpha"/>
<feOffset dx="8" dy="8"/>
<feGaussianBlur stdDeviation="8"/>
<feComposite in2="hardAlpha" operator="out"/>
<feColorMatrix type="matrix" values="0 0 0 0 0 0 0 0 0 0 0 0 0 0 0 0 0 0 0.5 0"/>
<feBlend mode="normal" in2="BackgroundImageFix" result="effect1_dropShadow_316_53"/>
<feBlend mode="normal" in="SourceGraphic" in2="effect1_dropShadow_316_53" result="shape"/>
<feColorMatrix in="SourceAlpha" type="matrix" values="0 0 0 0 0 0 0 0 0 0 0 0 0 0 0 0 0 0 127 0" result="hardAlpha"/>
<feOffset dx="8" dy="8"/>
<feGaussianBlur stdDeviation="8"/>
<feComposite in2="hardAlpha" operator="arithmetic" k2="-1" k3="1"/>
<feColorMatrix type="matrix" values="0 0 0 0 0 0 0 0 0 0 0 0 0 0 0 0 0 0 0.5 0"/>
<feBlend mode="normal" in2="shape" result="effect2_innerShadow_316_53"/>
</filter>
<radialGradient id="paint0_radial_316_53" cx="0" cy="0" r="1" gradientUnits="userSpaceOnUse" gradientTransform="translate(256.277 256) rotate(90) scale(256 174.277)">
<stop stop-color="#003865"/>
<stop offset="1" stop-color="#003865" stop-opacity="0.9"/>
</radialGradient>
<clipPath id="clip0_316_53">
<rect width="512" height="512" fill="white"/>
</clipPath>
</defs>
</svg>
