<svg width="887" height="1292" viewBox="0 0 887 1292" fill="none" xmlns="http://www.w3.org/2000/svg">
<mask id="path-1-outside-1_317_94" maskUnits="userSpaceOnUse" x="-0.276367" y="-5" width="887" height="1301" fill="black">
<rect fill="white" x="-0.276367" y="-5" width="887" height="1301"/>
<path fill-rule="evenodd" clip-rule="evenodd" d="M230.535 878.534C230.535 878.534 211.467 825.346 156.271 791.225C108.699 761.817 108.746 798.25 147.239 845.417C189.564 897.279 275.813 961.778 343.936 992.94C460.18 1046.12 597.863 1062.71 659.053 1011C705.848 971.464 667.081 850.435 481.423 699.901C444.547 662.697 402.432 626.309 360.125 589.755C288.125 527.545 215.565 464.852 167.31 396.827C58.7146 243.74 53.9076 113.823 161.288 37.5529C344.513 -73.7846 585.176 93.6412 643.103 137.757C650.74 142.211 657.962 146.733 664.843 151.295C648.33 150.547 630.427 150.212 609.876 149.951C507.426 81.3728 436.61 46.5247 372.291 34.7077C359.347 32.3295 346.666 30.8841 334.044 30.2842C299.499 28.6424 265.391 33.3336 227.518 42.5704C227.52 42.5703 227.521 42.5703 227.522 42.5702C227.522 42.5703 227.521 42.5705 227.521 42.5706C238.885 42.0696 249.866 41.7955 260.564 41.7933C285.817 41.7881 309.484 43.297 332.846 46.9061C388.277 55.4696 441.992 75.8571 511.114 115.899L511.114 115.899C537.188 131.003 565.453 148.904 596.83 170.022C636.64 164.782 666.599 165.24 694.775 172.759C706.291 181.603 716.982 190.417 727.378 198.988L727.379 198.988L727.38 198.989C744.746 213.306 761.289 226.945 779.477 238.908C803.643 254.804 816.128 275.805 824.637 297.474C832.987 318.737 846.051 325.048 857.673 330.662C867.924 335.614 877.053 340.024 880.836 353.673C885.4 370.137 878.707 382.646 866.546 388.043C853.01 405.401 831.383 413.391 785.501 417.901C811.024 408.995 826.704 400.774 837.637 388.87C828.406 386.684 820.072 384.215 812.317 381.276C789.704 389.692 770.041 394.831 742.348 400.84C763.383 390.459 776.462 380.118 788.112 369.451C785.202 367.664 782.332 365.754 779.477 363.709C761.413 350.767 733.313 339.693 692.168 323.567C679.368 318.55 664.768 313.377 651.328 308.973C657.143 317.37 663.691 325.166 670.394 333.149C683.081 348.256 696.326 364.027 706.217 385.787C708.273 390.311 710.263 394.695 712.188 398.937L712.188 398.938C733.753 446.454 747.183 476.045 754.388 482.129C763.637 487.631 773.313 492.352 782.136 496.656C795.207 503.033 806.408 508.498 811.591 514.243C786.172 505.896 773.781 502.272 759.406 500.193C774.077 516.998 786.695 524.645 811.591 537.325C810.589 536.934 808.857 536.484 806.562 535.887C792.195 532.151 755.763 522.679 738.331 486.143C735.772 480.78 733.108 475.07 730.313 469.077L730.313 469.077L730.313 469.076C711.026 427.727 685.488 372.976 645 326.578C647.045 359.618 651.157 380.157 656.712 407.905C658.076 414.719 659.528 421.968 661.057 429.944C645.425 408.638 629.196 345.422 619.835 299.58C614.735 298.293 610.895 297.533 608.872 297.474C600.865 304.439 590.896 396.255 638.979 464.065C638.979 464.065 652.661 462.954 661.057 461.054C669.911 459.05 686.146 455.033 686.146 455.033C686.146 455.033 674.104 462.058 667.079 467.075C661.848 470.811 655.036 477.111 655.036 477.111C655.036 477.111 673.402 478.86 685.143 478.115C698.647 477.257 719.264 472.093 719.264 472.093C719.264 472.093 693.184 489.265 674.104 492.164C644.776 496.621 613.227 490.626 600.844 472.093C588.492 453.606 584.279 434.728 577.65 405.02L577.65 405.019C573.029 384.31 567.233 358.338 556.687 323.567C545.258 285.881 523.829 247.933 502.751 217.314C461.845 187.769 353.39 138.182 283.72 132.891C177.606 124.832 165.728 176.493 167.331 208.567C171.321 288.442 217.477 352.061 283.72 413.887C364.778 489.542 452.749 566.74 507.985 615.211L508.062 615.278L508.128 615.336L508.408 615.582C514.559 620.98 520.301 626.019 525.577 630.656C527.587 632.422 529.702 634.275 531.915 636.214C602.627 698.163 772.425 846.921 749.371 1003.98C735.671 1097.31 663.204 1156.67 593.819 1168.56C488.774 1186.57 398.688 1158.7 297.713 1109.81L306.803 1076.23C464.362 1153.51 580.774 1157.52 647.009 1103.33C515.07 1148.91 355.256 1083.79 291.51 1045.58C269.122 1183.08 134.668 1271.84 2.72363 1292C104.709 1222.83 155.312 1165.92 195.58 1048.77C120.469 993.802 61.0727 923.292 45.877 845.417C29.8195 763.125 77.6216 703.117 140.215 711.944C296.77 734.022 309.815 926.705 309.815 926.705L230.535 878.534ZM669.255 217.189C708.61 226.169 722.042 239.513 744.13 265.123C705.563 253.724 692.088 240.938 669.255 217.189Z"/>
</mask>
<g filter="url(#filter0_i_317_94)">
<path fill-rule="evenodd" clip-rule="evenodd" d="M230.535 878.534C230.535 878.534 211.467 825.346 156.271 791.225C108.699 761.817 108.746 798.25 147.239 845.417C189.564 897.279 275.813 961.778 343.936 992.94C460.18 1046.12 597.863 1062.71 659.053 1011C705.848 971.464 667.081 850.435 481.423 699.901C444.547 662.697 402.432 626.309 360.125 589.755C288.125 527.545 215.565 464.852 167.31 396.827C58.7146 243.74 53.9076 113.823 161.288 37.5529C344.513 -73.7846 585.176 93.6412 643.103 137.757C650.74 142.211 657.962 146.733 664.843 151.295C648.33 150.547 630.427 150.212 609.876 149.951C507.426 81.3728 436.61 46.5247 372.291 34.7077C359.347 32.3295 346.666 30.8841 334.044 30.2842C299.499 28.6424 265.391 33.3336 227.518 42.5704C227.52 42.5703 227.521 42.5703 227.522 42.5702C227.522 42.5703 227.521 42.5705 227.521 42.5706C238.885 42.0696 249.866 41.7955 260.564 41.7933C285.817 41.7881 309.484 43.297 332.846 46.9061C388.277 55.4696 441.992 75.8571 511.114 115.899L511.114 115.899C537.188 131.003 565.453 148.904 596.83 170.022C636.64 164.782 666.599 165.24 694.775 172.759C706.291 181.603 716.982 190.417 727.378 198.988L727.379 198.988L727.38 198.989C744.746 213.306 761.289 226.945 779.477 238.908C803.643 254.804 816.128 275.805 824.637 297.474C832.987 318.737 846.051 325.048 857.673 330.662C867.924 335.614 877.053 340.024 880.836 353.673C885.4 370.137 878.707 382.646 866.546 388.043C853.01 405.401 831.383 413.391 785.501 417.901C811.024 408.995 826.704 400.774 837.637 388.87C828.406 386.684 820.072 384.215 812.317 381.276C789.704 389.692 770.041 394.831 742.348 400.84C763.383 390.459 776.462 380.118 788.112 369.451C785.202 367.664 782.332 365.754 779.477 363.709C761.413 350.767 733.313 339.693 692.168 323.567C679.368 318.55 664.768 313.377 651.328 308.973C657.143 317.37 663.691 325.166 670.394 333.149C683.081 348.256 696.326 364.027 706.217 385.787C708.273 390.311 710.263 394.695 712.188 398.937L712.188 398.938C733.753 446.454 747.183 476.045 754.388 482.129C763.637 487.631 773.313 492.352 782.136 496.656C795.207 503.033 806.408 508.498 811.591 514.243C786.172 505.896 773.781 502.272 759.406 500.193C774.077 516.998 786.695 524.645 811.591 537.325C810.589 536.934 808.857 536.484 806.562 535.887C792.195 532.151 755.763 522.679 738.331 486.143C735.772 480.78 733.108 475.07 730.313 469.077L730.313 469.077L730.313 469.076C711.026 427.727 685.488 372.976 645 326.578C647.045 359.618 651.157 380.157 656.712 407.905C658.076 414.719 659.528 421.968 661.057 429.944C645.425 408.638 629.196 345.422 619.835 299.58C614.735 298.293 610.895 297.533 608.872 297.474C600.865 304.439 590.896 396.255 638.979 464.065C638.979 464.065 652.661 462.954 661.057 461.054C669.911 459.05 686.146 455.033 686.146 455.033C686.146 455.033 674.104 462.058 667.079 467.075C661.848 470.811 655.036 477.111 655.036 477.111C655.036 477.111 673.402 478.86 685.143 478.115C698.647 477.257 719.264 472.093 719.264 472.093C719.264 472.093 693.184 489.265 674.104 492.164C644.776 496.621 613.227 490.626 600.844 472.093C588.492 453.606 584.279 434.728 577.65 405.02L577.65 405.019C573.029 384.31 567.233 358.338 556.687 323.567C545.258 285.881 523.829 247.933 502.751 217.314C461.845 187.769 353.39 138.182 283.72 132.891C177.606 124.832 165.728 176.493 167.331 208.567C171.321 288.442 217.477 352.061 283.72 413.887C364.778 489.542 452.749 566.74 507.985 615.211L508.062 615.278L508.128 615.336L508.408 615.582C514.559 620.98 520.301 626.019 525.577 630.656C527.587 632.422 529.702 634.275 531.915 636.214C602.627 698.163 772.425 846.921 749.371 1003.98C735.671 1097.31 663.204 1156.67 593.819 1168.56C488.774 1186.57 398.688 1158.7 297.713 1109.81L306.803 1076.23C464.362 1153.51 580.774 1157.52 647.009 1103.33C515.07 1148.91 355.256 1083.79 291.51 1045.58C269.122 1183.08 134.668 1271.84 2.72363 1292C104.709 1222.83 155.312 1165.92 195.58 1048.77C120.469 993.802 61.0727 923.292 45.877 845.417C29.8195 763.125 77.6216 703.117 140.215 711.944C296.77 734.022 309.815 926.705 309.815 926.705L230.535 878.534ZM669.255 217.189C708.61 226.169 722.042 239.513 744.13 265.123C705.563 253.724 692.088 240.938 669.255 217.189Z" fill="url(#paint0_radial_317_94)"/>
</g>
<path d="M156.271 791.225L158.375 787.822L156.271 791.225ZM230.535 878.534L226.769 879.884L227.247 881.217L228.458 881.953L230.535 878.534ZM147.239 845.417L144.14 847.946L147.239 845.417ZM343.936 992.94L345.599 989.302L343.936 992.94ZM659.053 1011L661.635 1014.06L659.053 1011ZM481.423 699.901L478.582 702.717L478.735 702.871L478.904 703.008L481.423 699.901ZM360.125 589.755L357.51 592.781L360.125 589.755ZM167.31 396.827L170.572 394.512L167.31 396.827ZM161.288 37.5529L159.211 34.1345L159.089 34.2089L158.972 34.2918L161.288 37.5529ZM643.103 137.757L640.679 140.939L640.875 141.089L641.088 141.213L643.103 137.757ZM664.843 151.295L664.662 155.291L679.097 155.944L667.054 147.961L664.843 151.295ZM609.876 149.951L607.651 153.275L608.638 153.936L609.825 153.951L609.876 149.951ZM372.291 34.7077L371.568 38.6419L371.568 38.6419L372.291 34.7077ZM334.044 30.2842L333.854 34.2797L334.044 30.2842ZM227.518 42.5704L226.57 38.6843L227.698 46.5664L227.518 42.5704ZM227.522 42.5702L228.467 46.457L227.343 38.5742L227.522 42.5702ZM227.521 42.5706L226.576 38.6838L227.697 46.5667L227.521 42.5706ZM260.564 41.7933L260.563 37.7933L260.564 41.7933ZM332.846 46.9061L332.235 50.8592L332.846 46.9061ZM511.114 115.899L509.109 119.361L511.597 120.802L513.755 118.903L511.114 115.899ZM511.114 115.899L513.119 112.438L510.631 110.996L508.473 112.895L511.114 115.899ZM596.83 170.022L594.596 173.341L595.852 174.186L597.352 173.988L596.83 170.022ZM694.775 172.759L697.211 169.587L696.578 169.1L695.806 168.894L694.775 172.759ZM727.378 198.988L730.012 195.977L729.968 195.939L729.922 195.901L727.378 198.988ZM727.379 198.988L730.055 196.015L730.034 195.996L730.013 195.978L727.379 198.988ZM727.38 198.989L724.704 201.962L724.768 202.02L724.835 202.075L727.38 198.989ZM779.477 238.908L781.675 235.567L779.477 238.908ZM824.637 297.474L828.36 296.012L824.637 297.474ZM857.673 330.662L855.933 334.264L857.673 330.662ZM880.836 353.673L884.691 352.605L880.836 353.673ZM866.546 388.043L864.923 384.387L864.008 384.793L863.391 385.583L866.546 388.043ZM785.501 417.901L784.183 414.124L785.892 421.882L785.501 417.901ZM837.637 388.87L840.583 391.576L845.199 386.551L838.559 384.978L837.637 388.87ZM812.317 381.276L813.734 377.536L812.329 377.003L810.921 377.527L812.317 381.276ZM742.348 400.84L740.577 397.253L743.196 404.749L742.348 400.84ZM788.112 369.451L790.813 372.401L794.726 368.819L790.206 366.043L788.112 369.451ZM779.477 363.709L777.148 366.961L779.477 363.709ZM692.168 323.567L693.627 319.842L692.168 323.567ZM651.328 308.973L652.574 305.172L641.264 301.466L648.04 311.25L651.328 308.973ZM670.394 333.149L667.331 335.721L670.394 333.149ZM706.217 385.787L709.858 384.132V384.132L706.217 385.787ZM712.188 398.937L708.545 400.59L708.576 400.658L708.61 400.726L712.188 398.937ZM712.188 398.938L715.831 397.285L715.799 397.216L715.766 397.149L712.188 398.938ZM754.388 482.129L751.807 485.185L752.059 485.398L752.343 485.567L754.388 482.129ZM782.136 496.656L780.382 500.251L782.136 496.656ZM811.591 514.243L810.343 518.043L824.641 522.739L814.561 511.564L811.591 514.243ZM759.406 500.193L759.978 496.234L749.29 494.689L756.392 502.824L759.406 500.193ZM811.591 537.325L810.137 541.051L813.406 533.76L811.591 537.325ZM806.562 535.887L805.556 539.758H805.556L806.562 535.887ZM738.331 486.143L734.721 487.866L738.331 486.143ZM730.313 469.077L733.938 467.387L733.893 467.29L733.843 467.195L730.313 469.077ZM730.313 469.077L726.599 470.562L726.68 470.766L726.783 470.959L730.313 469.077ZM730.313 469.076L734.027 467.59L733.985 467.487L733.938 467.385L730.313 469.076ZM645 326.578L648.014 323.948L640.281 315.086L641.008 326.825L645 326.578ZM656.712 407.905L660.634 407.119L656.712 407.905ZM661.057 429.944L657.832 432.31L664.985 429.191L661.057 429.944ZM619.835 299.58L623.754 298.78L623.251 296.317L620.814 295.702L619.835 299.58ZM608.872 297.474L608.988 293.476L607.426 293.431L606.247 294.456L608.872 297.474ZM638.979 464.065L635.716 466.378L637.033 468.236L639.303 468.052L638.979 464.065ZM661.057 461.054L661.94 464.955H661.94L661.057 461.054ZM686.146 455.033L688.162 458.488L685.185 451.15L686.146 455.033ZM667.079 467.075L669.404 470.33L667.079 467.075ZM655.036 477.111L652.32 474.174L645.755 480.245L654.657 481.093L655.036 477.111ZM685.143 478.115L684.889 474.123L685.143 478.115ZM719.264 472.093L721.463 475.434L718.292 468.213L719.264 472.093ZM674.104 492.164L674.705 496.119L674.104 492.164ZM600.844 472.093L604.17 469.871L600.844 472.093ZM577.65 405.02L573.745 405.887L573.746 405.891L577.65 405.02ZM577.65 405.019L581.555 404.151L581.554 404.148L577.65 405.019ZM556.687 323.567L560.515 322.406L556.687 323.567ZM502.751 217.314L506.046 215.046L505.654 214.477L505.093 214.072L502.751 217.314ZM283.72 132.891L283.417 136.88L283.72 132.891ZM167.331 208.567L163.336 208.766L167.331 208.567ZM283.72 413.887L280.99 416.811L283.72 413.887ZM507.985 615.211L505.346 618.217L505.347 618.218L507.985 615.211ZM508.062 615.278L505.424 618.285L505.424 618.286L508.062 615.278ZM508.128 615.336L510.766 612.33L510.765 612.329L508.128 615.336ZM508.408 615.582L505.77 618.589L505.77 618.589L508.408 615.582ZM525.577 630.656L528.218 627.651H528.218L525.577 630.656ZM531.915 636.214L534.551 633.205L534.551 633.205L531.915 636.214ZM749.371 1003.98L753.328 1004.56L749.371 1003.98ZM593.819 1168.56L593.143 1164.62L593.819 1168.56ZM297.713 1109.81L293.852 1108.77L292.986 1111.97L295.97 1113.41L297.713 1109.81ZM306.803 1076.23L308.565 1072.64L304.21 1070.51L302.942 1075.19L306.803 1076.23ZM647.009 1103.33L649.542 1106.43L645.703 1099.55L647.009 1103.33ZM291.51 1045.58L293.567 1042.15L288.51 1039.12L287.562 1044.94L291.51 1045.58ZM2.72363 1292L0.478434 1288.69L3.32774 1295.95L2.72363 1292ZM195.58 1048.77L199.363 1050.07L200.321 1047.28L197.943 1045.54L195.58 1048.77ZM45.877 845.417L41.951 846.183L45.877 845.417ZM140.215 711.944L140.773 707.983L140.215 711.944ZM309.815 926.705L307.738 930.124L314.327 934.127L313.806 926.435L309.815 926.705ZM669.255 217.189L670.145 213.29L657.094 210.312L666.372 219.962L669.255 217.189ZM744.13 265.123L742.997 268.959L756.048 272.817L747.159 262.511L744.13 265.123ZM154.168 794.627C181.152 811.308 199.33 832.668 210.769 849.888C216.485 858.493 220.504 866.043 223.087 871.422C224.378 874.11 225.308 876.253 225.911 877.711C226.213 878.44 226.432 878.997 226.574 879.365C226.645 879.549 226.696 879.686 226.728 879.773C226.745 879.817 226.756 879.848 226.763 879.867C226.766 879.876 226.768 879.882 226.77 879.885C226.77 879.887 226.77 879.887 226.77 879.887C226.77 879.887 226.77 879.886 226.77 879.886C226.77 879.885 226.769 879.884 230.535 878.534C234.3 877.185 234.299 877.183 234.299 877.181C234.298 877.18 234.298 877.179 234.297 877.177C234.296 877.173 234.294 877.169 234.293 877.164C234.289 877.154 234.284 877.141 234.278 877.125C234.266 877.092 234.249 877.046 234.228 876.988C234.185 876.872 234.122 876.706 234.04 876.492C233.875 876.064 233.631 875.445 233.304 874.653C232.648 873.069 231.658 870.79 230.299 867.959C227.581 862.299 223.384 854.419 217.433 845.462C205.539 827.557 186.587 805.263 158.375 787.822L154.168 794.627ZM150.338 842.888C140.861 831.275 133.826 820.413 129.317 811.163C124.736 801.764 123.012 794.535 123.461 790C123.677 787.83 124.35 786.621 125.082 785.941C125.799 785.274 127.061 784.659 129.389 784.653C134.296 784.639 142.403 787.354 154.168 794.627L158.375 787.822C146.353 780.391 136.627 776.633 129.366 776.653C125.61 776.664 122.205 777.693 119.635 780.082C117.079 782.458 115.847 785.717 115.5 789.211C114.827 796.004 117.359 804.889 122.126 814.668C126.965 824.595 134.371 835.975 144.14 847.946L150.338 842.888ZM345.599 989.302C277.959 958.361 192.227 894.216 150.338 842.888L144.14 847.946C186.901 900.343 273.668 965.195 342.272 996.577L345.599 989.302ZM656.472 1007.95C627.085 1032.78 578.686 1041.62 522.445 1037.31C466.383 1033.02 403.36 1015.72 345.599 989.302L342.272 996.577C400.756 1023.33 464.696 1040.92 521.835 1045.29C578.794 1049.65 629.831 1040.93 661.635 1014.06L656.472 1007.95ZM478.904 703.008C571.487 778.076 627.13 845.545 653.831 898.866C667.185 925.532 673.192 948.442 673.148 966.872C673.105 985.225 667.087 998.978 656.472 1007.95L661.635 1014.06C674.417 1003.26 681.101 987.056 681.148 966.891C681.195 946.803 674.681 922.634 660.985 895.284C633.587 840.573 577.017 772.26 483.942 696.794L478.904 703.008ZM357.51 592.781C399.842 629.358 441.835 665.643 478.582 702.717L484.264 697.085C447.259 659.751 405.023 623.261 362.74 586.728L357.51 592.781ZM164.047 399.141C212.638 467.64 285.61 530.659 357.51 592.781L362.74 586.728C290.639 524.432 218.491 462.064 170.572 394.512L164.047 399.141ZM158.972 34.2918C104.238 73.1683 77.9251 125.951 79.3091 188.472C80.6873 250.735 109.511 322.262 164.047 399.141L170.572 394.512C116.513 318.305 88.636 248.33 87.3071 188.295C85.9839 128.519 110.958 78.208 163.605 40.814L158.972 34.2918ZM645.526 134.575C616.432 112.417 541.42 59.2623 450.572 25.6091C359.799 -8.01636 252.362 -22.469 159.211 34.1345L163.365 40.9713C253.44 -13.7627 357.947 -0.17114 447.793 33.1109C537.564 66.3652 611.847 118.981 640.679 140.939L645.526 134.575ZM667.054 147.961C660.113 143.36 652.826 138.796 645.118 134.302L641.088 141.213C648.655 145.625 655.812 150.107 662.633 154.629L667.054 147.961ZM609.825 153.951C630.37 154.212 648.218 154.546 664.662 155.291L665.024 147.299C648.442 146.548 630.484 146.213 609.927 145.952L609.825 153.951ZM371.568 38.6419C435.049 50.3048 505.302 84.7644 607.651 153.275L612.101 146.627C509.55 77.9812 438.171 42.7445 373.014 30.7736L371.568 38.6419ZM373.014 30.7736C359.895 28.3632 347.036 26.8971 334.234 26.2887L333.854 34.2797C346.297 34.8711 358.8 36.2959 371.568 38.6419L373.014 30.7736ZM334.234 26.2887C299.187 24.6231 264.677 29.3903 226.57 38.6843L228.466 46.4565C266.104 37.2768 299.812 32.6618 333.854 34.2797L334.234 26.2887ZM227.698 46.5664C227.695 46.5665 227.693 46.5666 227.694 46.5665C227.694 46.5665 227.698 46.5664 227.702 46.5662L227.343 38.5742C227.345 38.5741 227.347 38.574 227.346 38.5741C227.346 38.5741 227.343 38.5742 227.339 38.5744L227.698 46.5664ZM228.465 46.4574C228.465 46.4574 228.465 46.4574 228.465 46.4574V46.4574C228.465 46.4574 228.465 46.4574 228.465 46.4574V46.4574C228.465 46.4574 228.465 46.4574 228.465 46.4574C228.465 46.4574 228.465 46.4574 228.465 46.4574H228.465C228.465 46.4574 228.465 46.4574 228.465 46.4574C228.465 46.4574 228.465 46.4574 228.465 46.4574C228.465 46.4574 228.465 46.4574 228.465 46.4574C228.465 46.4574 228.465 46.4574 228.465 46.4574C228.465 46.4574 228.465 46.4574 228.465 46.4574C228.465 46.4574 228.465 46.4574 228.465 46.4574C228.465 46.4574 228.465 46.4574 228.465 46.4574H228.465C228.465 46.4574 228.465 46.4574 228.465 46.4574C228.465 46.4574 228.465 46.4574 228.465 46.4574V46.4574C228.465 46.4574 228.465 46.4574 228.465 46.4574V46.4574C228.465 46.4574 228.465 46.4574 228.465 46.4574C228.465 46.4574 228.465 46.4574 228.465 46.4574H228.465C228.465 46.4574 228.465 46.4574 228.465 46.4574C228.466 46.4574 228.466 46.4574 228.466 46.4574C228.466 46.4574 228.466 46.4574 228.466 46.4574C228.466 46.4574 228.466 46.4574 228.466 46.4574C228.466 46.4574 228.466 46.4574 228.466 46.4574C228.466 46.4574 228.466 46.4574 228.466 46.4574C228.466 46.4574 228.466 46.4574 228.466 46.4574H228.466C228.466 46.4574 228.466 46.4574 228.466 46.4574C228.466 46.4574 228.466 46.4574 228.466 46.4574V46.4574C228.466 46.4574 228.466 46.4574 228.466 46.4574V46.4574H228.466V46.4574H228.466C228.466 46.4574 228.466 46.4574 228.466 46.4574C228.466 46.4574 228.466 46.4574 228.466 46.4574C228.466 46.4574 228.466 46.4574 228.466 46.4574C228.466 46.4574 228.466 46.4574 228.466 46.4574H228.466C228.466 46.4574 228.466 46.4574 228.466 46.4574H228.466C228.466 46.4574 228.466 46.4574 228.466 46.4574C228.466 46.4574 228.466 46.4574 228.466 46.4574C228.466 46.4574 228.466 46.4574 228.466 46.4574L228.466 46.4573C228.466 46.4573 228.466 46.4573 228.466 46.4573C228.466 46.4573 228.466 46.4573 228.466 46.4573C228.466 46.4573 228.466 46.4573 228.466 46.4573C228.466 46.4573 228.466 46.4573 228.466 46.4573C228.466 46.4573 228.466 46.4573 228.466 46.4573C228.466 46.4573 228.466 46.4573 228.466 46.4573C228.466 46.4573 228.466 46.4573 228.466 46.4573C228.466 46.4573 228.466 46.4573 228.466 46.4573V46.4573H228.466V46.4573C228.466 46.4573 228.466 46.4573 228.466 46.4573V46.4573C228.466 46.4573 228.466 46.4573 228.466 46.4573C228.466 46.4573 228.466 46.4573 228.466 46.4573C228.466 46.4573 228.466 46.4573 228.466 46.4573C228.466 46.4573 228.466 46.4573 228.466 46.4573H228.466C228.466 46.4573 228.466 46.4573 228.466 46.4573C228.466 46.4573 228.466 46.4573 228.466 46.4573C228.466 46.4573 228.466 46.4573 228.466 46.4573C228.466 46.4573 228.466 46.4573 228.466 46.4573C228.466 46.4573 228.466 46.4573 228.466 46.4573C228.466 46.4573 228.466 46.4573 228.466 46.4573V46.4573H228.466V46.4573C228.466 46.4573 228.466 46.4573 228.466 46.4573V46.4573C228.466 46.4573 228.466 46.4573 228.466 46.4573C228.466 46.4573 228.466 46.4573 228.466 46.4573H228.466C228.466 46.4573 228.466 46.4573 228.466 46.4573H228.466C228.466 46.4573 228.466 46.4573 228.466 46.4573C228.466 46.4573 228.466 46.4573 228.466 46.4573C228.466 46.4573 228.466 46.4573 228.466 46.4573C228.466 46.4573 228.466 46.4573 228.466 46.4573C228.466 46.4573 228.466 46.4573 228.466 46.4573H228.466V46.4573H228.466V46.4573C228.466 46.4573 228.466 46.4573 228.466 46.4573V46.4573C228.466 46.4573 228.466 46.4573 228.466 46.4573C228.466 46.4572 228.466 46.4572 228.466 46.4572H228.466C228.466 46.4572 228.466 46.4572 228.466 46.4572C228.466 46.4572 228.466 46.4572 228.466 46.4572C228.466 46.4572 228.466 46.4572 228.466 46.4572C228.466 46.4572 228.466 46.4572 228.466 46.4572C228.466 46.4572 228.466 46.4572 228.466 46.4572C228.466 46.4572 228.466 46.4572 228.466 46.4572C228.466 46.4572 228.466 46.4572 228.466 46.4572H228.466V46.4572C228.466 46.4572 228.466 46.4572 228.466 46.4572V46.4572C228.466 46.4572 228.466 46.4572 228.466 46.4572C228.466 46.4572 228.466 46.4572 228.466 46.4572C228.466 46.4572 228.466 46.4572 228.466 46.4572C228.466 46.4572 228.466 46.4572 228.466 46.4572C228.466 46.4572 228.466 46.4572 228.466 46.4572C228.466 46.4572 228.466 46.4572 228.466 46.4572C228.466 46.4572 228.466 46.4572 228.466 46.4572C228.466 46.4572 228.466 46.4572 228.466 46.4572C228.466 46.4572 228.466 46.4572 228.466 46.4572C228.466 46.4572 228.466 46.4572 228.466 46.4572V46.4572C228.466 46.4572 228.466 46.4572 228.466 46.4572V46.4572H228.466C228.466 46.4572 228.466 46.4572 228.466 46.4572C228.466 46.4572 228.466 46.4572 228.466 46.4572C228.466 46.4572 228.466 46.4572 228.466 46.4572C228.466 46.4572 228.466 46.4572 228.466 46.4572C228.466 46.4572 228.466 46.4572 228.466 46.4572H228.466C228.466 46.4572 228.466 46.4572 228.466 46.4572H228.466C228.466 46.4572 228.466 46.4572 228.466 46.4572C228.466 46.4572 228.466 46.4572 228.466 46.4572V46.4572C228.466 46.4572 228.466 46.4572 228.466 46.4572V46.4572H228.466V46.4572H228.467C228.467 46.4572 228.467 46.4572 228.467 46.4572C228.467 46.4572 228.467 46.4572 228.467 46.4572C228.467 46.4572 228.467 46.4572 228.467 46.4572C228.467 46.4572 228.467 46.4572 228.467 46.4572C228.467 46.4571 228.467 46.4571 228.467 46.4571H228.467C228.467 46.4571 228.467 46.4571 228.467 46.4571C228.467 46.4571 228.467 46.4571 228.467 46.4571C228.467 46.4571 228.467 46.4571 228.467 46.4571C228.467 46.4571 228.467 46.4571 228.467 46.4571V46.4571C228.467 46.4571 228.467 46.4571 228.467 46.4571V46.4571H228.467V46.4571C228.467 46.4571 228.467 46.4571 228.467 46.4571C228.467 46.4571 228.467 46.4571 228.467 46.4571C228.467 46.4571 228.467 46.4571 228.467 46.4571C228.467 46.4571 228.467 46.4571 228.467 46.4571C228.467 46.4571 228.467 46.4571 228.467 46.4571C228.467 46.4571 228.467 46.4571 228.467 46.4571H228.467C228.467 46.4571 228.467 46.4571 228.467 46.4571C228.467 46.4571 228.467 46.4571 228.467 46.4571C228.467 46.4571 228.467 46.4571 228.467 46.4571C228.467 46.4571 228.467 46.4571 228.467 46.4571C228.467 46.4571 228.467 46.4571 228.467 46.4571C228.467 46.4571 228.467 46.4571 228.467 46.4571V46.4571H228.467V46.4571C228.467 46.4571 228.467 46.4571 228.467 46.4571C228.467 46.4571 228.467 46.4571 228.467 46.4571C228.467 46.4571 228.467 46.4571 228.467 46.4571C228.467 46.4571 228.467 46.4571 228.467 46.4571C228.467 46.4571 228.467 46.4571 228.467 46.4571C228.467 46.4571 228.467 46.4571 228.467 46.4571C228.467 46.4571 228.467 46.4571 228.467 46.4571C228.467 46.4571 228.467 46.4571 228.467 46.4571L228.467 46.4571C228.467 46.4571 228.467 46.4571 228.467 46.4571C228.467 46.4571 228.467 46.4571 228.467 46.4571C228.467 46.4571 228.467 46.4571 228.467 46.4571H228.467C228.467 46.4571 228.467 46.4571 228.467 46.4571H228.467C228.467 46.4571 228.467 46.4571 228.467 46.4571C228.467 46.4571 228.467 46.4571 228.467 46.4571C228.467 46.4571 228.467 46.4571 228.467 46.4571C228.467 46.4571 228.467 46.4571 228.467 46.4571H228.467C228.467 46.4571 228.467 46.4571 228.467 46.457L226.578 38.6834C226.578 38.6834 226.578 38.6834 226.578 38.6834V38.6834C226.577 38.6834 226.577 38.6834 226.577 38.6834V38.6834C226.577 38.6834 226.577 38.6834 226.577 38.6834C226.577 38.6834 226.577 38.6834 226.577 38.6834H226.577C226.577 38.6834 226.577 38.6834 226.577 38.6834C226.577 38.6834 226.577 38.6834 226.577 38.6834C226.577 38.6834 226.577 38.6834 226.577 38.6834C226.577 38.6834 226.577 38.6834 226.577 38.6834C226.577 38.6834 226.577 38.6834 226.577 38.6834C226.577 38.6834 226.577 38.6834 226.577 38.6834C226.577 38.6834 226.577 38.6834 226.577 38.6834H226.577C226.577 38.6834 226.577 38.6834 226.577 38.6834C226.577 38.6834 226.577 38.6834 226.577 38.6834V38.6834C226.577 38.6834 226.577 38.6834 226.577 38.6834V38.6834C226.577 38.6834 226.577 38.6834 226.577 38.6834C226.577 38.6834 226.577 38.6834 226.577 38.6834H226.577C226.577 38.6834 226.577 38.6834 226.577 38.6834C226.577 38.6834 226.577 38.6834 226.577 38.6834C226.577 38.6834 226.577 38.6834 226.577 38.6834C226.577 38.6834 226.577 38.6834 226.577 38.6834C226.577 38.6834 226.577 38.6834 226.577 38.6834C226.577 38.6834 226.577 38.6834 226.577 38.6834C226.577 38.6834 226.577 38.6834 226.577 38.6834H226.577C226.577 38.6834 226.577 38.6834 226.577 38.6834C226.577 38.6834 226.577 38.6834 226.577 38.6834V38.6834C226.577 38.6834 226.577 38.6834 226.577 38.6834V38.6834H226.577V38.6834H226.577C226.577 38.6834 226.577 38.6834 226.577 38.6834C226.577 38.6834 226.577 38.6834 226.577 38.6834C226.577 38.6835 226.577 38.6835 226.577 38.6835C226.577 38.6835 226.577 38.6835 226.577 38.6835H226.577C226.577 38.6835 226.577 38.6835 226.577 38.6835H226.577C226.577 38.6835 226.577 38.6835 226.577 38.6835C226.577 38.6835 226.577 38.6835 226.577 38.6835C226.577 38.6835 226.577 38.6835 226.577 38.6835L226.577 38.6835C226.577 38.6835 226.577 38.6835 226.577 38.6835C226.577 38.6835 226.577 38.6835 226.577 38.6835C226.577 38.6835 226.577 38.6835 226.577 38.6835C226.577 38.6835 226.577 38.6835 226.577 38.6835C226.577 38.6835 226.577 38.6835 226.577 38.6835C226.577 38.6835 226.577 38.6835 226.577 38.6835C226.577 38.6835 226.577 38.6835 226.577 38.6835C226.577 38.6835 226.577 38.6835 226.577 38.6835V38.6835H226.577V38.6835C226.577 38.6835 226.577 38.6835 226.577 38.6835V38.6835C226.577 38.6835 226.577 38.6835 226.577 38.6835C226.577 38.6835 226.577 38.6835 226.577 38.6835C226.577 38.6835 226.577 38.6835 226.577 38.6835C226.577 38.6835 226.577 38.6835 226.577 38.6835H226.577C226.577 38.6835 226.577 38.6835 226.577 38.6835C226.577 38.6835 226.577 38.6835 226.577 38.6835C226.577 38.6835 226.577 38.6835 226.577 38.6835C226.577 38.6835 226.577 38.6835 226.577 38.6835C226.577 38.6835 226.577 38.6835 226.577 38.6835C226.577 38.6835 226.577 38.6835 226.577 38.6835V38.6835H226.577V38.6835C226.577 38.6835 226.577 38.6835 226.577 38.6835V38.6835C226.577 38.6835 226.577 38.6835 226.577 38.6835C226.577 38.6835 226.577 38.6835 226.577 38.6835H226.577C226.577 38.6835 226.577 38.6835 226.577 38.6835H226.577C226.577 38.6835 226.577 38.6835 226.577 38.6835C226.577 38.6835 226.577 38.6835 226.577 38.6835C226.577 38.6835 226.577 38.6835 226.577 38.6836C226.577 38.6836 226.577 38.6836 226.577 38.6836C226.577 38.6836 226.577 38.6836 226.577 38.6836H226.577V38.6836H226.577V38.6836C226.577 38.6836 226.577 38.6836 226.577 38.6836V38.6836C226.577 38.6836 226.577 38.6836 226.577 38.6836C226.577 38.6836 226.577 38.6836 226.577 38.6836H226.577C226.577 38.6836 226.577 38.6836 226.577 38.6836C226.577 38.6836 226.577 38.6836 226.577 38.6836C226.577 38.6836 226.577 38.6836 226.577 38.6836C226.577 38.6836 226.577 38.6836 226.577 38.6836C226.577 38.6836 226.577 38.6836 226.577 38.6836C226.577 38.6836 226.577 38.6836 226.577 38.6836C226.577 38.6836 226.577 38.6836 226.577 38.6836H226.577V38.6836C226.577 38.6836 226.577 38.6836 226.577 38.6836V38.6836C226.577 38.6836 226.577 38.6836 226.577 38.6836C226.577 38.6836 226.577 38.6836 226.577 38.6836C226.577 38.6836 226.577 38.6836 226.577 38.6836C226.577 38.6836 226.577 38.6836 226.577 38.6836C226.577 38.6836 226.577 38.6836 226.577 38.6836C226.577 38.6836 226.577 38.6836 226.577 38.6836C226.577 38.6836 226.577 38.6836 226.577 38.6836C226.577 38.6836 226.577 38.6836 226.577 38.6836C226.577 38.6836 226.577 38.6836 226.577 38.6836C226.577 38.6836 226.577 38.6836 226.576 38.6836V38.6836C226.576 38.6836 226.576 38.6836 226.576 38.6836V38.6836H226.576C226.576 38.6836 226.576 38.6836 226.576 38.6836C226.576 38.6836 226.576 38.6836 226.576 38.6836C226.576 38.6836 226.576 38.6836 226.576 38.6836C226.576 38.6836 226.576 38.6836 226.576 38.6836C226.576 38.6836 226.576 38.6836 226.576 38.6836H226.576C226.576 38.6836 226.576 38.6836 226.576 38.6836H226.576C226.576 38.6836 226.576 38.6836 226.576 38.6836C226.576 38.6836 226.576 38.6836 226.576 38.6836V38.6837C226.576 38.6837 226.576 38.6837 226.576 38.6837V38.6837H226.576V38.6837H226.576C226.576 38.6837 226.576 38.6837 226.576 38.6837C226.576 38.6837 226.576 38.6837 226.576 38.6837C226.576 38.6837 226.576 38.6837 226.576 38.6837C226.576 38.6837 226.576 38.6837 226.576 38.6837C226.576 38.6837 226.576 38.6837 226.576 38.6837H226.576C226.576 38.6837 226.576 38.6837 226.576 38.6837C226.576 38.6837 226.576 38.6837 226.576 38.6837C226.576 38.6837 226.576 38.6837 226.576 38.6837C226.576 38.6837 226.576 38.6837 226.576 38.6837V38.6837C226.576 38.6837 226.576 38.6837 226.576 38.6837V38.6837H226.576V38.6837C226.576 38.6837 226.576 38.6837 226.576 38.6837C226.576 38.6837 226.576 38.6837 226.576 38.6837C226.576 38.6837 226.576 38.6837 226.576 38.6837C226.576 38.6837 226.576 38.6837 226.576 38.6837C226.576 38.6837 226.576 38.6837 226.576 38.6837C226.576 38.6837 226.576 38.6837 226.576 38.6837H226.576C226.576 38.6837 226.576 38.6837 226.576 38.6837C226.576 38.6837 226.576 38.6837 226.576 38.6837C226.576 38.6837 226.576 38.6837 226.576 38.6837C226.576 38.6837 226.576 38.6837 226.576 38.6837C226.576 38.6837 226.576 38.6837 226.576 38.6837C226.576 38.6837 226.576 38.6837 226.576 38.6837V38.6837H226.576V38.6837C226.576 38.6837 226.576 38.6837 226.576 38.6837C226.576 38.6837 226.576 38.6837 226.576 38.6837C226.576 38.6837 226.576 38.6837 226.576 38.6837C226.576 38.6837 226.576 38.6837 226.576 38.6837C226.576 38.6837 226.576 38.6837 226.576 38.6837C226.576 38.6837 226.576 38.6837 226.576 38.6837C226.576 38.6837 226.576 38.6837 226.576 38.6837C226.576 38.6837 226.576 38.6837 226.576 38.6837L226.576 38.6837C226.576 38.6837 226.576 38.6838 226.576 38.6838C226.576 38.6838 226.576 38.6838 226.576 38.6838C226.576 38.6838 226.576 38.6838 226.576 38.6838H226.576C226.576 38.6838 226.576 38.6838 226.576 38.6838H226.576C226.576 38.6838 226.576 38.6838 226.576 38.6838C226.576 38.6838 226.576 38.6838 226.576 38.6838C226.576 38.6838 226.576 38.6838 226.576 38.6838C226.576 38.6838 226.576 38.6838 226.576 38.6838H226.576C226.576 38.6838 226.576 38.6838 226.576 38.6838L228.465 46.4574ZM260.563 37.7933C249.798 37.7955 238.757 38.0713 227.344 38.5745L227.697 46.5667C239.012 46.0679 249.935 45.7955 260.564 45.7933L260.563 37.7933ZM260.564 45.7933C285.656 45.7881 309.114 47.2873 332.235 50.8592L333.457 42.953C309.854 39.3067 285.978 37.7881 260.563 37.7933L260.564 45.7933ZM332.235 50.8592C387.033 59.3249 440.273 79.4838 509.109 119.361L513.119 112.438C443.712 72.2304 389.521 51.6143 333.457 42.953L332.235 50.8592ZM513.755 118.903L513.756 118.902L508.473 112.895L508.472 112.896L513.755 118.903ZM599.063 166.704C567.635 145.551 539.291 127.599 513.119 112.438L509.109 119.36C535.084 134.407 563.271 152.257 594.596 173.341L599.063 166.704ZM695.806 168.894C666.936 161.19 636.401 160.779 596.308 166.057L597.352 173.988C636.88 168.785 666.263 169.29 693.744 176.624L695.806 168.894ZM729.922 195.901C719.533 187.336 708.79 178.479 697.211 169.587L692.339 175.931C703.791 184.727 714.431 193.498 724.833 202.074L729.922 195.901ZM730.013 195.978L730.012 195.977L724.744 201.998L724.745 201.999L730.013 195.978ZM730.055 196.016L730.055 196.015L724.703 201.961L724.704 201.962L730.055 196.016ZM781.675 235.567C763.698 223.741 747.319 210.243 729.924 195.903L724.835 202.075C742.174 216.37 758.881 230.148 777.279 242.25L781.675 235.567ZM828.36 296.012C819.67 273.882 806.765 252.07 781.675 235.567L777.279 242.25C800.521 257.539 812.586 277.727 820.914 298.936L828.36 296.012ZM859.413 327.06C853.564 324.235 847.845 321.453 842.531 316.899C837.287 312.406 832.307 306.062 828.36 296.012L820.914 298.936C825.317 310.149 831.044 317.592 837.326 322.974C843.536 328.295 850.161 331.475 855.933 334.264L859.413 327.06ZM884.691 352.605C880.384 337.067 869.632 331.997 859.413 327.06L855.933 334.264C866.216 339.231 873.722 342.981 876.982 354.742L884.691 352.605ZM868.168 391.699C875.068 388.638 880.552 383.484 883.614 376.642C886.675 369.803 887.181 361.586 884.691 352.605L876.982 354.742C879.056 362.224 878.496 368.494 876.312 373.374C874.129 378.252 870.186 382.052 864.923 384.387L868.168 391.699ZM785.892 421.882C831.85 417.364 855.05 409.289 869.7 390.503L863.391 385.583C850.969 401.513 830.916 409.417 785.11 413.92L785.892 421.882ZM834.691 386.165C824.453 397.312 809.561 405.269 784.183 414.124L786.819 421.678C812.487 412.721 828.955 404.236 840.583 391.576L834.691 386.165ZM810.899 385.017C818.849 388.029 827.353 390.546 836.715 392.763L838.559 384.978C829.459 382.823 821.296 380.401 813.734 377.536L810.899 385.017ZM743.196 404.749C770.982 398.719 790.85 393.534 813.712 385.025L810.921 377.527C788.559 385.85 769.1 390.942 741.499 396.931L743.196 404.749ZM785.411 366.501C773.969 376.978 761.197 387.077 740.577 397.253L744.118 404.427C765.569 393.84 778.956 383.258 790.813 372.401L785.411 366.501ZM777.148 366.961C780.076 369.059 783.025 371.021 786.018 372.859L790.206 366.043C787.379 364.306 784.587 362.45 781.807 360.457L777.148 366.961ZM690.708 327.291C732.073 343.503 759.59 354.381 777.148 366.961L781.807 360.457C763.236 347.153 734.554 335.882 693.627 319.842L690.708 327.291ZM650.083 312.774C663.465 317.159 677.991 322.307 690.708 327.291L693.627 319.842C680.745 314.793 666.072 309.595 652.574 305.172L650.083 312.774ZM673.457 330.576C666.734 322.57 660.308 314.914 654.617 306.696L648.04 311.25C653.978 319.826 660.648 327.763 667.331 335.721L673.457 330.576ZM709.858 384.132C699.713 361.813 686.127 345.662 673.457 330.576L667.331 335.721C680.036 350.849 692.938 366.241 702.575 387.443L709.858 384.132ZM715.83 397.284C713.905 393.042 711.915 388.657 709.858 384.132L702.575 387.443C704.631 391.965 706.62 396.348 708.545 400.59L715.83 397.284ZM715.766 397.149L715.765 397.148L708.61 400.726L708.61 400.726L715.766 397.149ZM756.968 479.073C755.726 478.023 753.825 475.558 751.222 471.196C748.694 466.959 745.72 461.315 742.26 454.301C735.342 440.275 726.625 421.068 715.831 397.285L708.546 400.591C719.317 424.324 728.097 443.671 735.086 457.84C738.58 464.924 741.662 470.788 744.352 475.296C746.968 479.678 749.447 483.193 751.807 485.185L756.968 479.073ZM783.89 493.061C775.045 488.746 765.517 484.095 756.433 478.691L752.343 485.567C761.757 491.167 771.58 495.957 780.382 500.251L783.89 493.061ZM814.561 511.564C811.517 508.19 806.948 505.129 801.794 502.207C796.583 499.252 790.393 496.234 783.89 493.061L780.382 500.251C786.95 503.456 792.896 506.358 797.849 509.166C802.859 512.007 806.482 514.551 808.62 516.922L814.561 511.564ZM758.833 504.152C772.826 506.175 784.919 509.694 810.343 518.043L812.839 510.443C787.426 502.098 774.736 498.368 759.978 496.234L758.833 504.152ZM813.406 533.76C788.647 521.151 776.58 513.782 762.419 497.562L756.392 502.824C771.574 520.213 784.743 528.14 809.775 540.889L813.406 533.76ZM805.556 539.758C807.983 540.389 809.414 540.769 810.137 541.051L813.044 533.598C811.764 533.099 809.731 532.578 807.569 532.016L805.556 539.758ZM734.721 487.866C753.019 526.217 791.225 536.032 805.556 539.758L807.569 532.016C793.165 528.27 758.507 519.14 741.941 484.421L734.721 487.866ZM726.688 470.768C729.482 476.757 732.153 482.484 734.721 487.866L741.941 484.421C739.391 479.076 736.735 473.382 733.938 467.387L726.688 470.768ZM726.783 470.959L726.784 470.96L733.843 467.195L733.842 467.194L726.783 470.959ZM726.599 470.562L726.599 470.562L734.027 467.591L734.027 467.59L726.599 470.562ZM641.986 329.208C682.05 375.12 707.378 429.369 726.688 470.767L733.938 467.385C714.674 426.086 688.925 370.831 648.014 323.948L641.986 329.208ZM660.634 407.119C655.084 379.398 651.019 359.083 648.992 326.331L641.008 326.825C643.07 360.153 647.229 380.915 652.79 408.69L660.634 407.119ZM664.985 429.191C663.453 421.197 661.998 413.932 660.634 407.119L652.79 408.69C654.154 415.505 655.603 422.74 657.128 430.697L664.985 429.191ZM615.916 300.381C620.611 323.376 627.036 350.759 634.26 375.101C641.422 399.235 649.548 421.019 657.832 432.31L664.282 427.578C656.934 417.563 649.129 397.086 641.929 372.825C634.79 348.772 628.419 321.627 623.754 298.78L615.916 300.381ZM608.757 301.472C610.272 301.516 613.694 302.156 618.856 303.459L620.814 295.702C615.775 294.43 611.518 293.549 608.988 293.476L608.757 301.472ZM642.242 461.751C618.75 428.621 609.361 389.487 606.88 357.642C605.64 341.739 606.132 327.758 607.407 317.395C608.045 312.205 608.87 307.999 609.741 304.949C610.177 303.421 610.604 302.26 610.986 301.442C611.409 300.537 611.631 300.376 611.497 300.492L606.247 294.456C605.113 295.443 604.318 296.815 603.739 298.053C603.119 299.379 602.557 300.971 602.049 302.752C601.029 306.322 600.138 310.962 599.466 316.418C598.122 327.348 597.626 341.866 598.904 358.264C601.456 391.02 611.125 431.699 635.716 466.378L642.242 461.751ZM660.174 457.153C656.198 458.053 650.858 458.786 646.412 459.298C644.21 459.552 642.265 459.747 640.871 459.879C640.175 459.945 639.618 459.995 639.236 460.028C639.045 460.045 638.898 460.058 638.8 460.066C638.751 460.07 638.714 460.073 638.689 460.075C638.677 460.076 638.668 460.077 638.663 460.077C638.66 460.077 638.658 460.078 638.657 460.078C638.656 460.078 638.656 460.078 638.656 460.078C638.655 460.078 638.655 460.078 638.655 460.078C638.655 460.078 638.656 460.078 638.979 464.065C639.303 468.052 639.303 468.052 639.303 468.052C639.303 468.052 639.304 468.052 639.304 468.051C639.305 468.051 639.305 468.051 639.307 468.051C639.309 468.051 639.312 468.051 639.315 468.051C639.323 468.05 639.334 468.049 639.348 468.048C639.376 468.046 639.417 468.042 639.47 468.038C639.576 468.029 639.731 468.016 639.931 467.998C640.33 467.963 640.907 467.912 641.625 467.844C643.059 467.708 645.06 467.507 647.328 467.246C651.822 466.728 657.52 465.956 661.94 464.955L660.174 457.153ZM686.146 455.033C685.185 451.15 685.185 451.15 685.185 451.15C685.185 451.15 685.185 451.15 685.185 451.15C685.184 451.15 685.184 451.15 685.183 451.15C685.181 451.151 685.178 451.152 685.174 451.153C685.166 451.155 685.155 451.157 685.139 451.161C685.109 451.169 685.063 451.18 685.002 451.195C684.882 451.225 684.704 451.269 684.473 451.326C684.013 451.439 683.346 451.604 682.517 451.807C680.859 452.215 678.556 452.779 675.978 453.405C670.813 454.66 664.568 456.158 660.174 457.153L661.94 464.955C666.401 463.946 672.7 462.434 677.866 461.179C680.453 460.55 682.763 459.985 684.426 459.576C685.257 459.372 685.927 459.207 686.389 459.093C686.62 459.036 686.8 458.992 686.921 458.962C686.982 458.947 687.028 458.935 687.06 458.927C687.075 458.923 687.087 458.921 687.095 458.919C687.099 458.918 687.102 458.917 687.104 458.916C687.105 458.916 687.106 458.916 687.106 458.916C687.107 458.916 687.107 458.916 687.107 458.916C687.107 458.916 687.107 458.916 686.146 455.033ZM669.404 470.33C672.795 467.908 677.461 464.959 681.337 462.583C683.263 461.402 684.973 460.377 686.2 459.646C686.813 459.281 687.306 458.991 687.644 458.792C687.813 458.692 687.944 458.616 688.031 458.564C688.075 458.538 688.108 458.519 688.13 458.506C688.141 458.5 688.149 458.495 688.155 458.492C688.157 458.49 688.159 458.489 688.16 458.489C688.161 458.488 688.161 458.488 688.162 458.488C688.162 458.488 688.162 458.488 688.162 458.488C688.162 458.488 688.162 458.488 686.146 455.033C684.131 451.578 684.131 451.578 684.13 451.578C684.13 451.578 684.13 451.578 684.13 451.578C684.129 451.578 684.129 451.579 684.128 451.579C684.126 451.58 684.124 451.582 684.12 451.584C684.114 451.587 684.105 451.593 684.093 451.6C684.069 451.614 684.034 451.634 683.987 451.661C683.895 451.715 683.76 451.795 683.586 451.897C683.238 452.102 682.735 452.399 682.11 452.771C680.86 453.515 679.119 454.559 677.157 455.762C673.255 458.153 668.388 461.225 664.754 463.82L669.404 470.33ZM655.036 477.111C657.752 480.048 657.752 480.048 657.752 480.048C657.752 480.048 657.752 480.048 657.752 480.048C657.752 480.048 657.752 480.048 657.752 480.048C657.753 480.047 657.753 480.046 657.755 480.045C657.757 480.043 657.762 480.039 657.767 480.033C657.779 480.023 657.797 480.006 657.821 479.984C657.869 479.939 657.942 479.873 658.037 479.786C658.227 479.612 658.507 479.358 658.859 479.04C659.565 478.405 660.56 477.518 661.715 476.517C664.048 474.497 666.945 472.087 669.404 470.33L664.754 463.82C661.982 465.8 658.858 468.408 656.477 470.471C655.275 471.512 654.24 472.434 653.505 473.096C653.137 473.428 652.843 473.695 652.641 473.88C652.539 473.973 652.46 474.045 652.406 474.095C652.379 474.12 652.358 474.139 652.344 474.152C652.337 474.159 652.331 474.164 652.327 474.168C652.325 474.17 652.324 474.171 652.323 474.172C652.322 474.173 652.321 474.173 652.321 474.173C652.321 474.174 652.321 474.174 652.321 474.174C652.32 474.174 652.32 474.174 655.036 477.111ZM684.889 474.123C679.271 474.479 671.943 474.241 665.914 473.899C662.921 473.729 660.29 473.536 658.408 473.385C657.467 473.31 656.715 473.246 656.2 473.2C655.942 473.177 655.744 473.159 655.611 473.147C655.545 473.141 655.495 473.136 655.462 473.133C655.445 473.132 655.433 473.131 655.425 473.13C655.421 473.13 655.419 473.129 655.417 473.129C655.416 473.129 655.416 473.129 655.415 473.129C655.415 473.129 655.415 473.129 655.415 473.129C655.415 473.129 655.415 473.129 655.036 477.111C654.657 481.093 654.657 481.093 654.657 481.093C654.658 481.093 654.658 481.093 654.659 481.093C654.659 481.093 654.66 481.093 654.662 481.093C654.665 481.094 654.668 481.094 654.673 481.095C654.683 481.095 654.698 481.097 654.716 481.099C654.754 481.102 654.808 481.107 654.879 481.114C655.021 481.127 655.229 481.146 655.496 481.169C656.031 481.216 656.806 481.283 657.771 481.36C659.699 481.514 662.393 481.712 665.46 481.886C671.548 482.231 679.274 482.495 685.396 482.106L684.889 474.123ZM719.264 472.093C718.292 468.213 718.292 468.213 718.292 468.213C718.292 468.213 718.292 468.213 718.292 468.213C718.291 468.213 718.291 468.213 718.29 468.214C718.288 468.214 718.285 468.215 718.28 468.216C718.272 468.218 718.258 468.221 718.239 468.226C718.202 468.235 718.146 468.249 718.072 468.268C717.922 468.304 717.7 468.359 717.41 468.429C716.831 468.569 715.985 468.771 714.927 469.017C712.809 469.509 709.845 470.173 706.466 470.863C699.657 472.255 691.351 473.712 684.889 474.123L685.396 482.106C692.438 481.66 701.193 480.106 708.068 478.701C711.531 477.994 714.566 477.314 716.736 476.81C717.821 476.558 718.692 476.35 719.293 476.204C719.593 476.132 719.827 476.074 719.986 476.035C720.066 476.016 720.127 476 720.169 475.99C720.19 475.985 720.206 475.981 720.217 475.978C720.223 475.977 720.227 475.975 720.23 475.975C720.232 475.974 720.233 475.974 720.234 475.974C720.234 475.974 720.235 475.974 720.235 475.973C720.235 475.973 720.236 475.973 719.264 472.093ZM674.705 496.119C684.94 494.563 696.725 489.274 705.692 484.586C710.233 482.212 714.162 479.933 716.957 478.246C718.356 477.402 719.474 476.705 720.246 476.216C720.632 475.971 720.932 475.779 721.138 475.646C721.24 475.58 721.32 475.528 721.374 475.492C721.401 475.475 721.423 475.461 721.438 475.451C721.445 475.446 721.451 475.442 721.455 475.439C721.457 475.438 721.459 475.437 721.461 475.436C721.461 475.435 721.462 475.435 721.462 475.435C721.463 475.434 721.463 475.434 719.264 472.093C717.064 468.752 717.064 468.752 717.065 468.752C717.064 468.752 717.065 468.752 717.064 468.752C717.064 468.752 717.064 468.753 717.063 468.753C717.061 468.755 717.057 468.757 717.052 468.76C717.042 468.767 717.025 468.778 717.002 468.793C716.957 468.822 716.888 468.867 716.795 468.927C716.609 469.047 716.33 469.227 715.966 469.457C715.237 469.919 714.168 470.586 712.824 471.397C710.133 473.02 706.349 475.215 701.986 477.497C693.143 482.119 682.348 486.866 673.503 488.21L674.705 496.119ZM597.518 474.315C604.469 484.719 616.522 491.241 630.154 494.632C643.847 498.037 659.606 498.413 674.705 496.119L673.503 488.21C659.274 490.372 644.595 489.979 632.085 486.868C619.515 483.742 609.602 478.001 604.17 469.871L597.518 474.315ZM573.746 405.891C580.341 435.447 584.678 455.097 597.518 474.315L604.17 469.871C592.307 452.115 588.218 434.01 581.554 404.149L573.746 405.891ZM573.745 405.887L573.745 405.887L581.555 404.152L581.555 404.151L573.745 405.887ZM552.86 324.728C563.36 359.348 569.129 385.2 573.746 405.89L581.554 404.148C576.928 383.42 571.106 357.327 560.515 322.406L552.86 324.728ZM499.456 219.583C520.412 250.023 541.595 287.588 552.86 324.728L560.515 322.406C548.92 284.173 527.246 245.842 506.046 215.046L499.456 219.583ZM283.417 136.88C317.629 139.478 361.703 153.012 402.507 169.709C443.291 186.398 480.312 206.041 500.409 220.557L505.093 214.072C484.285 199.042 446.625 179.119 405.537 162.305C364.47 145.5 319.481 131.596 284.023 128.903L283.417 136.88ZM171.326 208.367C170.549 192.814 173.09 173.269 187.95 158.518C202.803 143.772 230.9 132.891 283.417 136.88L284.023 128.903C230.426 124.832 199.527 135.751 182.313 152.84C165.106 169.923 162.51 192.245 163.336 208.766L171.326 208.367ZM286.449 410.963C220.449 349.362 175.237 286.665 171.326 208.367L163.336 208.766C167.405 290.22 214.506 354.759 280.99 416.811L286.449 410.963ZM510.623 612.204C455.383 563.729 367.456 486.57 286.449 410.963L280.99 416.811C362.1 492.514 450.116 569.751 505.346 618.217L510.623 612.204ZM510.699 612.271L510.623 612.204L505.347 618.218L505.424 618.285L510.699 612.271ZM510.765 612.329L510.699 612.271L505.424 618.286L505.491 618.344L510.765 612.329ZM511.047 612.576L510.766 612.33L505.489 618.343L505.77 618.589L511.047 612.576ZM528.218 627.651C522.94 623.013 517.197 617.974 511.046 612.576L505.77 618.589C511.921 623.987 517.661 629.024 522.937 633.66L528.218 627.651ZM534.551 633.205C532.338 631.266 530.225 629.415 528.218 627.651L522.937 633.66C524.949 635.429 527.067 637.284 529.279 639.222L534.551 633.205ZM753.328 1004.56C765.089 924.441 727.631 846.888 679.006 782.031C630.318 717.091 569.891 664.166 534.551 633.205L529.279 639.222C564.651 670.211 624.48 722.64 672.605 786.83C720.793 851.104 756.707 926.459 745.413 1003.4L753.328 1004.56ZM594.495 1172.51C665.447 1160.34 739.357 1099.74 753.328 1004.56L745.413 1003.4C731.984 1094.88 660.961 1152.99 593.143 1164.62L594.495 1172.51ZM295.97 1113.41C397.243 1162.45 488.241 1190.72 594.495 1172.51L593.143 1164.62C489.307 1182.42 400.134 1154.96 299.456 1106.21L295.97 1113.41ZM302.942 1075.19L293.852 1108.77L301.574 1110.86L310.664 1077.28L302.942 1075.19ZM644.476 1100.23C580.218 1152.81 465.901 1149.81 308.565 1072.64L305.042 1079.83C462.823 1157.21 581.331 1162.24 649.542 1106.43L644.476 1100.23ZM289.454 1049.01C321.652 1068.31 377.92 1094.31 442.759 1109.77C507.571 1125.22 581.354 1130.24 648.315 1107.11L645.703 1099.55C580.726 1122 508.632 1117.25 444.615 1101.98C380.626 1086.73 325.115 1061.06 293.567 1042.15L289.454 1049.01ZM3.32774 1295.95C136.212 1275.65 272.683 1186.1 295.458 1046.23L287.562 1044.94C265.561 1180.06 133.124 1268.03 2.11953 1288.05L3.32774 1295.95ZM191.798 1047.47C171.771 1105.73 149.252 1148.79 119.189 1185.86C89.1063 1222.94 51.317 1254.21 0.478434 1288.69L4.96883 1295.31C56.1159 1260.62 94.6205 1228.85 125.402 1190.9C156.204 1152.92 179.12 1108.96 199.363 1050.07L191.798 1047.47ZM41.951 846.183C57.4236 925.478 117.736 996.759 193.218 1051.99L197.943 1045.54C123.202 990.845 64.7218 921.107 49.8029 844.651L41.951 846.183ZM140.773 707.983C107.947 703.354 78.9234 716.831 60.3283 742.143C41.7834 767.386 33.7488 804.148 41.951 846.183L49.8029 844.651C41.9477 804.394 49.7854 770.006 66.7755 746.879C83.7153 723.82 109.889 711.707 139.656 715.905L140.773 707.983ZM309.815 926.705C313.806 926.435 313.806 926.433 313.806 926.43C313.806 926.428 313.805 926.424 313.805 926.42C313.805 926.412 313.804 926.401 313.803 926.387C313.801 926.36 313.798 926.32 313.794 926.27C313.787 926.169 313.776 926.022 313.76 925.83C313.729 925.447 313.682 924.887 313.613 924.16C313.476 922.706 313.255 920.586 312.918 917.888C312.245 912.493 311.11 904.783 309.254 895.472C305.544 876.862 298.945 851.782 287.373 825.968C264.234 774.349 220.931 719.287 140.773 707.983L139.656 715.905C216.054 726.679 257.551 778.997 280.073 829.24C291.332 854.356 297.779 878.827 301.408 897.035C303.221 906.133 304.328 913.649 304.98 918.878C305.306 921.492 305.518 923.532 305.648 924.912C305.713 925.602 305.758 926.126 305.786 926.473C305.8 926.647 305.81 926.777 305.816 926.861C305.819 926.903 305.822 926.934 305.823 926.953C305.824 926.962 305.824 926.969 305.824 926.973C305.824 926.975 305.824 926.975 305.825 926.976C305.825 926.976 305.824 926.975 309.815 926.705ZM228.458 881.953L307.738 930.124L311.892 923.287L232.612 875.116L228.458 881.953ZM668.365 221.089C687.703 225.501 700.385 230.918 710.887 238.206C721.461 245.544 730.048 254.92 741.101 267.736L747.159 262.511C736.124 249.715 726.95 239.615 715.448 231.633C703.874 223.602 690.162 217.857 670.145 213.29L668.365 221.089ZM745.264 261.287C726.265 255.672 713.666 249.781 703.058 242.491C692.392 235.161 683.572 226.308 672.139 214.417L666.372 219.962C677.772 231.819 687.105 241.234 698.527 249.084C710.007 256.973 723.429 263.176 742.997 268.959L745.264 261.287Z" fill="#005498" mask="url(#path-1-outside-1_317_94)"/>
<defs>
<filter id="filter0_i_317_94" x="0.478516" y="-4.00031" width="893.798" height="1307.95" filterUnits="userSpaceOnUse" color-interpolation-filters="sRGB">
<feFlood flood-opacity="0" result="BackgroundImageFix"/>
<feBlend mode="normal" in="SourceGraphic" in2="BackgroundImageFix" result="shape"/>
<feColorMatrix in="SourceAlpha" type="matrix" values="0 0 0 0 0 0 0 0 0 0 0 0 0 0 0 0 0 0 127 0" result="hardAlpha"/>
<feOffset dx="8" dy="8"/>
<feGaussianBlur stdDeviation="8"/>
<feComposite in2="hardAlpha" operator="arithmetic" k2="-1" k3="1"/>
<feColorMatrix type="matrix" values="0 0 0 0 0 0 0 0 0 0 0 0 0 0 0 0 0 0 0.5 0"/>
<feBlend mode="normal" in2="shape" result="effect1_innerShadow_317_94"/>
</filter>
<radialGradient id="paint0_radial_317_94" cx="0" cy="0" r="1" gradientUnits="userSpaceOnUse" gradientTransform="translate(442.5 646) rotate(90) scale(646 439.776)">
<stop stop-color="#003865"/>
<stop offset="1" stop-color="#003865" stop-opacity="0.9"/>
</radialGradient>
</defs>
</svg>
