<?xml version="1.0" standalone="no"?>
<!DOCTYPE svg PUBLIC "-//W3C//DTD SVG 20010904//EN"
 "http://www.w3.org/TR/2001/REC-SVG-20010904/DTD/svg10.dtd">
<svg version="1.0" xmlns="http://www.w3.org/2000/svg"
 width="700.000000pt" height="700.000000pt" viewBox="0 0 700.000000 700.000000"
 preserveAspectRatio="xMidYMid meet">
<metadata>
Created by potrace 1.14, written by Peter Selinger 2001-2017
</metadata>
<g transform="translate(0.000000,700.000000) scale(0.100000,-0.100000)"
fill="#000000" stroke="none">
<path d="M3278 6995 c-1 -1 -42 -5 -89 -9 -47 -4 -95 -8 -105 -10 -10 -2 -48
-7 -84 -12 -36 -4 -67 -8 -70 -9 -3 -1 -25 -5 -50 -9 -25 -4 -101 -21 -170
-38 -69 -16 -134 -31 -146 -34 -95 -19 -416 -140 -579 -220 -179 -86 -459
-253 -554 -330 -9 -7 -52 -41 -96 -75 -342 -266 -650 -623 -875 -1014 -47 -83
-170 -327 -170 -340 0 -3 -9 -24 -20 -48 -57 -123 -157 -435 -186 -582 -2 -11
-10 -54 -19 -95 -29 -147 -36 -200 -52 -370 -15 -165 -8 -592 12 -711 2 -13 6
-46 9 -74 9 -78 22 -152 51 -285 21 -96 91 -339 114 -395 5 -11 25 -65 46
-120 64 -170 213 -461 314 -615 200 -303 446 -578 717 -800 190 -157 232 -188
399 -289 66 -40 119 -76 118 -81 -1 -4 7 -5 19 -2 16 4 19 2 13 -8 -5 -9 -4
-11 4 -6 6 4 23 -2 37 -13 15 -11 30 -18 35 -15 5 3 9 0 9 -7 0 -7 3 -9 7 -6
3 4 13 1 22 -6 50 -42 539 -226 668 -252 10 -2 56 -12 103 -24 109 -26 200
-43 299 -57 25 -3 57 -8 71 -10 192 -30 697 -24 907 10 21 4 54 9 73 11 19 3
46 7 60 10 14 2 39 7 55 10 121 23 322 77 455 122 558 189 1090 542 1480 982
36 41 70 79 76 85 6 6 48 61 94 121 152 200 276 403 388 638 29 59 52 110 52
113 0 3 8 24 19 47 53 118 147 417 177 562 17 81 54 301 59 350 4 33 9 71 11
85 9 47 11 525 4 605 -16 169 -22 220 -25 225 -2 3 -6 30 -10 60 -9 75 -69
337 -99 435 -135 446 -345 845 -627 1195 -429 532 -983 917 -1631 1134 -156
52 -409 114 -538 131 -19 3 -46 7 -60 10 -13 2 -52 7 -86 11 -33 3 -74 8 -90
10 -33 5 -540 14 -546 9z"/>
<path d="M1589 523 c-13 -16 -12 -17 4 -4 16 13 21 21 13 21 -2 0 -10 -8 -17
-17z"/>
</g>
</svg>
