<svg width="512" height="768" viewBox="0 0 512 768" fill="none" xmlns="http://www.w3.org/2000/svg">
<mask id="path-1-inside-1_3_29" fill="white">
<rect width="512" height="768" rx="32"/>
</mask>
<rect width="512" height="768" rx="32" stroke="#ED754C" stroke-width="96" mask="url(#path-1-inside-1_3_29)"/>
<mask id="path-2-inside-2_3_29" fill="white">
<path d="M0 32C0 14.3269 14.3269 0 32 0H480C497.673 0 512 14.3269 512 32V76.8H0V32Z"/>
</mask>
<path d="M0 32C0 14.3269 14.3269 0 32 0H480C497.673 0 512 14.3269 512 32V76.8H0V32Z" fill="#ED754C" stroke="#ED754C" stroke-width="76.8" mask="url(#path-2-inside-2_3_29)"/>
<mask id="path-3-inside-3_3_29" fill="white">
<path d="M0 512H512V736C512 753.673 497.673 768 480 768H32C14.3269 768 0 753.673 0 736V512Z"/>
</mask>
<path d="M0 512H512V736C512 753.673 497.673 768 480 768H32C14.3269 768 0 753.673 0 736V512Z" fill="#ED754C" stroke="#ED754C" stroke-width="96" mask="url(#path-3-inside-3_3_29)"/>
<path d="M244.686 402.314C250.935 408.562 261.065 408.562 267.314 402.314L369.137 300.49C375.385 294.242 375.385 284.111 369.137 277.863C362.889 271.615 352.758 271.615 346.51 277.863L256 368.373L165.49 277.863C159.242 271.615 149.111 271.615 142.863 277.863C136.615 284.111 136.615 294.242 142.863 300.49L244.686 402.314ZM240 199V391H272V199H240Z" fill="#ED754C"/>
<path fill-rule="evenodd" clip-rule="evenodd" d="M320 472C320 485.255 330.745 496 344 496L424 496C437.255 496 448 485.255 448 472C448 471.994 448 471.987 448 471.981L448 392C448 378.745 437.255 368 424 368C410.745 368 400 378.745 400 392L400 448L344 448C330.745 448 320 458.745 320 472Z" fill="#ED754C"/>
<path fill-rule="evenodd" clip-rule="evenodd" d="M192 117C192 103.745 181.255 93 168 93L88 93C74.7452 93 64 103.745 64 117C64 117.006 64 117.013 64 117.019L64 197C64 210.255 74.7452 221 88 221C101.255 221 112 210.255 112 197L112 141L168 141C181.255 141 192 130.255 192 117Z" fill="#ED754C"/>
</svg>
