<svg width="512" height="768" viewBox="0 0 512 768" fill="none" xmlns="http://www.w3.org/2000/svg">
<mask id="path-1-inside-1_3_28" fill="white">
<rect width="512" height="768" rx="32"/>
</mask>
<rect width="512" height="768" rx="32" stroke="#ED754C" stroke-width="96" mask="url(#path-1-inside-1_3_28)"/>
<mask id="path-2-inside-2_3_28" fill="white">
<path d="M0 32C0 14.3269 14.3269 0 32 0H480C497.673 0 512 14.3269 512 32V76.8H0V32Z"/>
</mask>
<path d="M0 32C0 14.3269 14.3269 0 32 0H480C497.673 0 512 14.3269 512 32V76.8H0V32Z" fill="#ED754C" stroke="#ED754C" stroke-width="76.8" mask="url(#path-2-inside-2_3_28)"/>
<mask id="path-3-inside-3_3_28" fill="white">
<path fill-rule="evenodd" clip-rule="evenodd" d="M512 384H0V736C0 753.673 14.3269 768 32 768H480C497.673 768 512 753.673 512 736V384ZM267.314 468.686C261.065 462.438 250.935 462.438 244.686 468.686L142.863 570.51C136.615 576.758 136.615 586.889 142.863 593.137C149.111 599.385 159.242 599.385 165.49 593.137L240 518.627V672H272V518.627L346.51 593.137C352.758 599.385 362.889 599.385 369.137 593.137C375.385 586.889 375.385 576.758 369.137 570.51L267.314 468.686Z"/>
</mask>
<path fill-rule="evenodd" clip-rule="evenodd" d="M512 384H0V736C0 753.673 14.3269 768 32 768H480C497.673 768 512 753.673 512 736V384ZM267.314 468.686C261.065 462.438 250.935 462.438 244.686 468.686L142.863 570.51C136.615 576.758 136.615 586.889 142.863 593.137C149.111 599.385 159.242 599.385 165.49 593.137L240 518.627V672H272V518.627L346.51 593.137C352.758 599.385 362.889 599.385 369.137 593.137C375.385 586.889 375.385 576.758 369.137 570.51L267.314 468.686Z" fill="#ED754C"/>
<path d="M0 384V336H-48V384H0ZM512 384H560V336H512V384ZM244.686 468.686L278.627 502.627L278.627 502.627L244.686 468.686ZM267.314 468.686L301.255 434.745L301.255 434.745L267.314 468.686ZM240 518.627H288V402.745L206.059 484.686L240 518.627ZM240 672H192V720H240V672ZM272 672V720H320V672H272ZM272 518.627L305.941 484.686L224 402.745V518.627H272ZM369.137 570.51L335.196 604.451L335.196 604.451L369.137 570.51ZM0 432H512V336H0V432ZM48 736V384H-48V736H48ZM32 720C40.8366 720 48 727.163 48 736H-48C-48 780.183 -12.1828 816 32 816V720ZM480 720H32V816H480V720ZM464 736C464 727.163 471.163 720 480 720V816C524.183 816 560 780.183 560 736H464ZM464 384V736H560V384H464ZM278.627 502.627C266.131 515.124 245.869 515.124 233.373 502.627L301.255 434.745C276.261 409.752 235.739 409.752 210.745 434.745L278.627 502.627ZM176.804 604.451L278.627 502.627L210.745 434.745L108.922 536.569L176.804 604.451ZM176.804 559.196C189.301 571.693 189.301 591.954 176.804 604.451L108.922 536.569C83.9282 561.562 83.9282 602.085 108.922 627.078L176.804 559.196ZM131.549 559.196C144.046 546.699 164.307 546.699 176.804 559.196L108.922 627.078C133.915 652.072 174.438 652.072 199.431 627.078L131.549 559.196ZM206.059 484.686L131.549 559.196L199.431 627.078L273.941 552.569L206.059 484.686ZM288 672V518.627H192V672H288ZM272 624H240V720H272V624ZM224 518.627V672H320V518.627H224ZM380.451 559.196L305.941 484.686L238.059 552.569L312.569 627.078L380.451 559.196ZM335.196 559.196C347.693 546.699 367.954 546.699 380.451 559.196L312.569 627.078C337.562 652.072 378.085 652.072 403.078 627.078L335.196 559.196ZM335.196 604.451C322.699 591.954 322.699 571.693 335.196 559.196L403.078 627.078C428.072 602.085 428.072 561.562 403.078 536.569L335.196 604.451ZM233.373 502.627L335.196 604.451L403.078 536.569L301.255 434.745L233.373 502.627Z" fill="#ED754C" mask="url(#path-3-inside-3_3_28)"/>
<path fill-rule="evenodd" clip-rule="evenodd" d="M168 368C181.255 368 192 357.255 192 344L192 264C192 250.745 181.255 240 168 240L88 240C74.7452 240 64 250.745 64 264C64 277.255 74.7452 288 88 288L144 288L144 344C144 357.255 154.745 368 168 368Z" fill="#ED754C"/>
<path fill-rule="evenodd" clip-rule="evenodd" d="M344 93C330.745 93 320 103.745 320 117V197C320 210.255 330.745 221 344 221C344.006 221 344.013 221 344.019 221L424 221C437.255 221 448 210.255 448 197C448 183.745 437.255 173 424 173L368 173V117C368 103.745 357.255 93 344 93Z" fill="#ED754C"/>
</svg>
