<svg width="512" height="768" viewBox="0 0 512 768" fill="none" xmlns="http://www.w3.org/2000/svg">
<mask id="path-1-inside-1_3_30" fill="white">
<rect width="512" height="768" rx="32"/>
</mask>
<rect width="512" height="768" rx="32" stroke="#ED754C" stroke-width="96" mask="url(#path-1-inside-1_3_30)"/>
<mask id="path-2-inside-2_3_30" fill="white">
<path d="M0 32C0 14.3269 14.3269 0 32 0H480C497.673 0 512 14.3269 512 32V76.8H0V32Z"/>
</mask>
<path d="M0 32C0 14.3269 14.3269 0 32 0H480C497.673 0 512 14.3269 512 32V76.8H0V32Z" fill="#ED754C" stroke="#ED754C" stroke-width="76.8" mask="url(#path-2-inside-2_3_30)"/>
<mask id="path-3-inside-3_3_30" fill="white">
<path d="M0 691H512V735.8C512 753.473 497.673 767.8 480 767.8H32C14.3269 767.8 0 753.473 0 735.8V691Z"/>
</mask>
<path d="M0 691H512V735.8C512 753.473 497.673 767.8 480 767.8H32C14.3269 767.8 0 753.473 0 735.8V691Z" fill="#ED754C" stroke="#ED754C" stroke-width="76.8" mask="url(#path-3-inside-3_3_30)"/>
<path d="M244.686 491.314C250.935 497.562 261.065 497.562 267.314 491.314L369.137 389.49C375.385 383.242 375.385 373.111 369.137 366.863C362.889 360.615 352.758 360.615 346.51 366.863L256 457.373L165.49 366.863C159.242 360.615 149.111 360.615 142.863 366.863C136.615 373.111 136.615 383.242 142.863 389.49L244.686 491.314ZM240 288V480H272V288H240Z" fill="#ED754C"/>
<path fill-rule="evenodd" clip-rule="evenodd" d="M320 651C320 664.255 330.745 675 344 675L424 675C437.255 675 448 664.255 448 651C448 650.994 448 650.987 448 650.981L448 571C448 557.745 437.255 547 424 547C410.745 547 400 557.745 400 571L400 627L344 627C330.745 627 320 637.745 320 651Z" fill="#ED754C"/>
<path fill-rule="evenodd" clip-rule="evenodd" d="M192 117C192 103.745 181.255 93 168 93L88 93C74.7452 93 64 103.745 64 117C64 117.006 64 117.013 64 117.019L64 197C64 210.255 74.7452 221 88 221C101.255 221 112 210.255 112 197L112 141L168 141C181.255 141 192 130.255 192 117Z" fill="#ED754C"/>
</svg>
